<?xml version="1.0" encoding="UTF-8"?>
<svg id="Layer_2" data-name="Layer 2" xmlns="http://www.w3.org/2000/svg" xmlns:xlink="http://www.w3.org/1999/xlink" viewBox="0 0 241.28 291.85">
  <defs>
    <style>
      .cls-1 {
        fill: #fff;
      }

      .cls-2 {
        fill: #3d2461;
      }

      .cls-3 {
        fill: #535726;
      }

      .cls-4 {
        fill: #c2c1c0;
      }

      .cls-5 {
        stroke-width: 3px;
      }

      .cls-5, .cls-6 {
        stroke: #231f20;
        stroke-miterlimit: 10;
      }

      .cls-5, .cls-6, .cls-7, .cls-8 {
        fill: none;
      }

      .cls-9 {
        fill: #592c82;
      }

      .cls-10 {
        fill: #ffc629;
      }

      .cls-6 {
        stroke-width: 2px;
      }

      .cls-11 {
        fill: #f1f2f2;
      }

      .cls-8 {
        clip-path: url(#clippath);
      }

      .cls-12 {
        fill: #cd9c2d;
      }

      .cls-13 {
        fill: #a7b365;
      }

      .cls-14 {
        fill: #757c40;
      }

      .cls-15 {
        fill: #858949;
      }

      .cls-16 {
        fill: #231f20;
      }

      .cls-17 {
        fill: #4b9048;
      }
    </style>
    <clipPath id="clippath">
      <path class="cls-7" d="m164.41,109.57c0-1.55-.18-3.08-.49-4.58,2.33,1.87,5.11,3.09,7.87,4.01,3.31,1.11,6.68,1.87,9.91,2.97,1.62.55,3.2,1.18,4.68,1.98,1.48.81,2.88,1.75,4.19,2.82,2.64,2.14,4.87,4.74,6.84,7.52s3.66,5.77,5.22,8.82c1.57,3.06,3.01,6.18,4.37,9.34,1.37,3.16,2.67,6.35,3.96,9.54,1.27,3.17,2.27,6.48,3.58,9.72.66,1.62,1.39,3.23,2.3,4.76.23.4.48.8.75,1.18-2.94,3.62-6.16,6.99-9.71,9.99-1.93,1.61-3.9,3.18-5.87,4.74-1.9,1.5-3.84,2.86-6.07,3.65-.19-.21-.39-.4-.61-.59-.02-.02-.04-.04-.06-.05,1.52-1.01,2.93-2.12,4.32-3.24.33-.28.85-.61,1.22-1.34.35-.74.28-1.4.24-1.89-.08-.95-.2-1.89-.36-2.83-.31-1.87-.75-3.72-1.33-5.53-.29-.91-.63-1.87-1.21-2.78-.55-.91-1.52-1.82-2.75-2.09-1.21-.27-2.27-.02-3.17.15-.92.17-1.84.37-2.77.6-1.33.32-2.65.75-3.92,1.29l.06-1.41c0-.67.01-1.4-.2-2.21-.18-.8-.8-1.74-1.67-2.16-.84-.42-1.63-.46-2.29-.51l-.99.52c.07-.15.22-.32.41-.41.15-.07.28-.1.31-.1h-.3s-.43.02-.43.02l-.88.02-1.78.04-3.56.04-4.29.06.09-.37-.17-.04c.11-1.6.43-3.21.86-4.81.51-1.87,1.11-3.76,1.73-5.61.63-1.85,1.34-3.66,2.26-5.37.91-1.71,2.07-3.28,3.5-4.59l-.34-.4c-1.57,1.26-2.88,2.83-3.93,4.54-1.07,1.71-1.91,3.53-2.67,5.38-.75,1.84-1.47,3.67-2.11,5.58-.61,1.82-1.11,3.73-1.31,5.72h-.74s-.33.01-.33.01c-.59-4.23-1.1-8.44-.83-12.64.16-2.22.54-4.43,1.23-6.56.68-2.13,1.64-4.17,2.84-6.08l-.57-.37c-1.32,1.89-2.41,3.95-3.22,6.12-.83,2.17-1.34,4.46-1.61,6.77-.49,4.29-.18,8.57.19,12.79l-4.82.07-3.57.07-1.8.07c-.68.03-1.22.13-1.85.22-.62.1-1.25.23-1.87.46-.31.11-.62.25-.91.41-.15.07-.3.16-.44.25-.04.02-.23.15-.32.25-.1.1-.17.2-.23.3-.43.76-.49,1.37-.6,2-.09.62-.13,1.23-.16,1.84-.11,2.43-.01,4.81.15,7.2l.58,13.89c-1.4.16-2.78.4-4.14.68-.81.17-1.61.33-2.48.58-.86.26-1.79.61-2.64,1.25-.86.64-1.49,1.61-1.82,2.54-.34.94-.47,1.87-.54,2.75-.13,1.74-.14,3.38-.11,5.07.02,1.68.11,3.36.26,5.03.04.41.06.9.24,1.47.17.58.64,1.18,1.06,1.48.42.33.76.52,1.12.74l1.05.66c2.6,1.6,5.24,3.16,7.95,4.62l-.37,21.48v.15l.04.14c.41,1.3,1.26,2.37,2.3,3.13,1.02.73,2.24,1.2,3.56,1.22h.03c.73.08,1.46.15,2.19.21-.74,2.31-.95,4.78-.85,7.15.11,2.91.42,5.68.43,8.55.11,2.9.47,5.76.88,8.59l.67,4.24.33,2.1c.06.37.09.66.19,1.12.09.42.24.81.4,1.17.31.72.68,1.33.94,1.92.27.6.4,1.11.43,1.75.07,1.23-.3,2.46-1.11,3.15-.55.48-1.33.77-2.21,1-.43.12-.88.22-1.34.32-1.38.31-2.76.58-4.15.82-2.77.48-5.6.79-8.45,1.22-2.85.41-5.65,1-8.44,1.43-5.6.92-11.21,1.46-16.84,1.17-5.63-.25-11.32-.96-16.95-1.61-2.8-.36-5.6-.81-8.28-1.51-2.68-.73-5.3-1.75-7.89-2.87-4.7-2.06-9.29-4.5-14.03-6.65l.08-.42c.4-2.16.24-4.31-.25-6.33-.24-.98-.57-1.94-.99-2.86.99.44,2,.86,3.03,1.24h.01l.91.34.33-.91,1.37-3.82c.22-.64.47-1.24.67-1.98.22-.72.22-1.67-.07-2.39-.26-.72-.59-1.3-.92-1.91s-.69-1.2-1.07-1.77c-.43-.65-.89-1.28-1.38-1.88.38-.01.72-.11,1.01-.22.71-.29,1.16-.62,1.68-.91l3.04-1.79.41-.24.04-.44v-.02c.49-3.97-.46-7.84-1.89-11.33-.71-1.76-1.56-3.45-2.47-5.09s-1.87-3.3-3.13-4.77c-.84-.98-1.86-1.86-3.03-2.47,1.04-3.95,2.13-8.13,1.72-12.46-.2-2.18-.7-4.26-1.2-6.3-.51-2.03-.95-4.04-1.36-6.08-.79-4.07-1.34-8.19-1.55-12.33-.18-4.13,0-8.28.64-12.35.37-2.03.78-4.06,1.4-6.02.27-.99.63-1.96.99-2.93.31-.95.85-1.93.96-3.18.09-1.28-.43-2.37-.82-3.31-.4-.96-.79-1.93-1.17-2.9-.75-1.93-1.44-3.89-1.99-5.88-2.23-7.94-1.74-16.61,1.33-24.29l-.88-.36c-3.23,7.84-3.83,16.75-1.62,24.97.54,2.05,1.22,4.05,1.97,6.02.37.99.76,1.96,1.15,2.94.4.97.77,1.87.69,2.71-.06.72-.4,1.48-.72,2.3-4.45-5.06-7.1-11.8-7.23-18.7h-.55c-.34,7.35,2.12,14.89,6.92,20.73l.14-.12c-.19.52-.37,1.05-.52,1.59-.66,2.02-1.11,4.1-1.5,6.18-.3,1.79-.52,3.59-.65,5.39-4.73,1.07-9.83.75-14.61-.64-2.44-.68-4.81-1.65-7.08-2.8-2.26-1.15-4.4-2.56-6.25-4.27-.92-.86-1.78-1.76-2.55-2.73-.75-.98-1.42-2.02-1.96-3.1-.56-1.07-.96-2.2-1.25-3.35-.16-.58-.29-1.18-.23-1.44.02-.13.04-.18.16-.39.11-.18.32-.48.49-.75l8.65-12.86,8.64-12.86,8.55-12.91c1.44-2.17,2.74-4.37,4.36-6.01,1.59-1.63,3.73-2.69,6.07-3.61,2-.79,4.07-1.49,6.15-2.22,2.58-.91,5.19-1.86,7.71-3.08.13.34.22.69.3,1.04.49,2.24.24,4.61-.36,6.85-.6,2.25-1.54,4.44-2.38,6.7-.42,1.13-.82,2.28-1.13,3.46-.31,1.19-.53,2.41-.65,3.64-.46,4.9.44,9.82,2.1,14.37,1.61,4.55,3.9,8.77,6.17,12.93.01.03.03.05.04.08h0s0,.02,0,.02l1.68,3.27-.66-3.66s-.01-.08-.02-.12c-.66-3.67-.6-7.42.2-11,.39-1.8.98-3.57,1.74-5.24.77-1.67,1.76-3.27,2.77-4.9,1.05-1.65,2.09-3.34,3.05-5.08-.48,4.64-1.31,9.25-1.87,13.94-.68,5.56-.97,11.33.31,16.98.03.12.05.23.08.35l1.17,4.86.8-5c.01-.11.02-.22.03-.34.13-.98.41-2.04.75-3.03.09-.26.18-.51.28-.77.16,2.39.49,4.76,1.01,7.09.72,3.25,1.85,6.48,3.62,9.34,1.72,2.84,3.69,5.48,5.27,8.32,1.46,2.56,2.57,5.4,2.57,8.32,0,.22-.01.45-.02.67,0,.05-.01.09-.01.14l-.1,2.09.87-1.9c3.5-7.64,7.04-15.35,9.08-23.63,1.05-4.11,1.63-8.38,1.68-12.66,0-1.99-.11-3.96-.11-5.89,0-.16,0-.31.31-4.37l1.23,1.42,1.26,1.48c.41.48.82.99,1.12,1.45l2.25,3.31-.41-3.94c-.02-.15-.03-.3-.04-.45-.18-2.24-.03-4.62.14-6.94.21-2.49.52-4.99.95-7.46.21-1.23.46-2.46.75-3.68.14-.61.29-1.22.45-1.82.19-.61.31-1.21.55-1.73.4-.82.84-1.64,1.27-2.47,1.08,3.42,1.2,7.08,1.1,10.69-.09,3.95-.56,7.91-.53,11.94.07,7.85,1.62,15.69,4.59,23,.07.19.14.37.22.56h0s1.17,2.93,1.17,2.93l.72-3.09c.98-4.22,3.55-7.95,6.18-11.61,1.32-1.84,2.69-3.69,3.9-5.67,1.21-1.96,2.34-3.99,3.3-6.09,1.96-4.18,3.41-8.6,4.35-13.12.46-2.27.8-4.56,1-6.86.12-1.51.18-3.01.19-4.52,2.52,2.18,5.49,3.83,8.68,4.79h.02l2,.64-.78-1.95c-.1-.24-.18-.48-.26-.72-.71-2.14-.82-4.5-.72-6.88.1-2.65.44-5.37.41-8.13Z"/>
    </clipPath>
  </defs>
  <g id="thumbs_up_torso" data-name="thumbs up torso">
    <path class="cls-17" d="m228.57,232.71c-.76-.71-1.48-1.47-2.15-2.26-.33-.42-.65-.73-1.02-1.33-.12-.22-.25-.48-.32-.79-4.21,2.28-8.05,5.27-11,9.04l-.58.75-.3-.9c-.32-.96-.46-1.97-.43-2.97-2.45.84-4.77,2.1-6.8,3.71l-.89.7.04-1.14.02-.4.05-1.13c.11-.04.21-.1.32-.14.25-.1.43-.34.35-.62-.07-.24-.36-.45-.62-.35-1.32.5-2.59,1.11-3.82,1.78-4.2,1.46-8.12,3.7-12.08,5.7-.57.29-.07,1.15.5.86.24-.12.47-.24.7-.36l10.29,3.65c4.3,1.29,9,1.07,13.66.82,4.65-.27,9.28-.79,13.57-2.33,3.8-1.36,7.37-3.57,9.82-6.67-3.46-1.21-6.64-3.14-9.32-5.63Z"/>
    <path class="cls-9" d="m154.87,126.34c.12-1.51.18-3.01.19-4.52,2.52,2.18,5.49,3.83,8.68,4.79h.02l2,.64-.78-1.95c-.1-.24-.18-.48-.26-.72-.71-2.14-.82-4.5-.72-6.88.1-2.64.44-5.35.41-8.1,3.03.64,5.98,1.64,8.85,2.85,3.28,1.37,6.43,3.04,9.43,4.97,2.99,1.92,5.84,4.07,8.46,6.45,2.62,2.37,4.97,5.02,7.14,7.84,4.34,5.62,7.87,11.89,10.58,18.53,2.55,6.38,4.58,12.97,6.15,19.69-4.45,6.06-10.18,11.2-16.59,15.23-6.4,4.03-13.49,6.99-20.87,8.8-1.57-1.9-3.07-3.83-4.36-5.87-1.46-2.28-2.67-4.71-3.64-7.25l-.95-2.4-1.08,2.33-.09.21c-3.59-4.8-6.85-9.87-8.96-15.47-1.13-3-1.91-6.14-2.25-9.34s-.23-6.44.25-9.63l-.35-.06c-.58,3.2-.78,6.49-.53,9.75.24,3.26.94,6.49,2.01,9.59,2.07,6.06,5.46,11.55,9.13,16.72-.2.48-.4.96-.59,1.45-.16-.14-.33-.28-.5-.42-.46-.37-.87-.86-1.3-1.29-.82-.96-1.59-1.97-2.32-3.01-1.46-2.1-2.82-4.29-4.05-6.54-1.24-2.25-2.42-4.54-3.5-6.87s-2.09-4.71-2.84-7.15l-.75.23c.78,2.5,1.78,4.89,2.81,7.27.87,1.97,1.8,3.92,2.79,5.84l-1.17.6-1.33.27c-1.68.33-3.33.87-4.9,1.58-.79.37-1.53.71-2.37,1.26-.41.28-.83.62-1.22,1.06-.38.44-.69,1.01-.87,1.54-.37,1.1-.33,2.08-.31,2.93.05.83.07,1.66.14,2.49.12,1.66.32,3.33.64,4.98.6,3.3,1.72,6.53,3.28,9.49,1.45,2.77,3.26,5.29,5.21,7.65l-.54.27c-1.08.56-2.1,1.17-3.15,1.62-1.03.45-2.14.69-3.32.93-1.18.25-2.36.52-3.54.86-1.18.33-2.35.74-3.49,1.25-1.17.52-2.19,1.12-3.25,1.69-1.06.59-2.12,1.2-3.15,1.93-.52.38-1.02.78-1.51,1.29-.24.26-.48.54-.69.9-.2.35-.4.87-.35,1.44.12,1.26.32,2.44.53,3.64.1.6.23,1.2.38,1.8.17.61.3,1.17.61,1.89.12.24.21.38.3.5.1.14.2.27.3.4.21.26.43.52.68.76.49.47,1.09.9,1.79,1.14.1.04.2.07.3.09-.09,1.72-.02,3.37.07,5.06.07.98.14,2.03.46,3.08.3,1.05.96,2.14,1.94,2.8.94.65,2.02.95,3.08,1.05-.76,2.08-1.29,4.36-1.09,6.68.06.67.16,1.33.32,1.98.14.69.48,1.45.95,2.02.47.6,1.06,1.07,1.69,1.43.64.34,1.19.57,1.79.85,3.59,1.57,7.47,2.41,11.37,2.57.35,2.26.56,4.58.76,6.88.21,2.49.36,4.98.45,7.46.09,2.49.15,4.98.03,7.41-.03.61-.07,1.21-.14,1.79-.05.44-.14.94-.23,1.25l-.75.21-1.82.52c-9.65,2.83-19.24,5.73-29.05,7.12-9.79,1.37-19.84.94-29.34-1.87-9.06-2.57-17.57-6.98-25.48-12.23.36-2.09.19-4.17-.28-6.12-.24-.98-.57-1.94-.99-2.86.99.44,2,.86,3.03,1.24h.01l.91.34.33-.91,1.37-3.82c.22-.64.47-1.24.67-1.98.22-.72.22-1.67-.07-2.39-.26-.72-.59-1.3-.92-1.91s-.69-1.2-1.07-1.77c-.43-.65-.89-1.28-1.38-1.88.38-.01.72-.11,1.01-.22.71-.29,1.16-.62,1.68-.91l3.04-1.79.41-.24.04-.44v-.02c.49-3.97-.46-7.84-1.89-11.33-.71-1.76-1.56-3.45-2.47-5.09s-1.87-3.3-3.13-4.77c-.84-.98-1.86-1.86-3.03-2.47,1.04-3.95,2.13-8.13,1.72-12.46-.2-2.18-.7-4.26-1.2-6.3-.51-2.03-.95-4.04-1.36-6.08-.79-4.07-1.34-8.19-1.55-12.33-.18-4.13,0-8.28.64-12.35.37-2.03.78-4.06,1.4-6.02.27-.99.63-1.96.99-2.93.31-.95.85-1.93.96-3.18.09-1.28-.43-2.37-.82-3.31-.4-.96-.79-1.93-1.17-2.9-.75-1.93-1.44-3.89-1.99-5.88-2.23-7.94-1.74-16.61,1.33-24.29l-.88-.36c-3.23,7.84-3.83,16.75-1.62,24.97.54,2.05,1.22,4.05,1.97,6.02.37.99.76,1.96,1.15,2.94.4.97.77,1.87.69,2.71-.06.72-.4,1.48-.72,2.3-4.45-5.06-7.1-11.8-7.23-18.7h-.55c-.34,7.35,2.12,14.89,6.92,20.73l.14-.12c-.19.52-.37,1.05-.52,1.59-.66,2.02-1.11,4.1-1.5,6.18-.3,1.79-.52,3.59-.65,5.39-4.73,1.07-9.83.75-14.61-.64-2.44-.68-4.81-1.65-7.08-2.8-2.26-1.15-4.4-2.56-6.25-4.27-.92-.86-1.78-1.76-2.55-2.73-.75-.98-1.42-2.02-1.96-3.1-.56-1.07-.96-2.2-1.25-3.35-.16-.58-.29-1.18-.23-1.44.02-.13.04-.18.16-.39.11-.18.32-.48.49-.75l8.65-12.86,8.64-12.86,8.55-12.91c1.44-2.17,2.74-4.37,4.36-6.01,1.59-1.63,3.73-2.69,6.07-3.61,2-.79,4.07-1.49,6.15-2.22,2.58-.91,5.19-1.86,7.71-3.08.13.34.22.69.3,1.04.49,2.24.24,4.61-.36,6.85-.6,2.25-1.54,4.44-2.38,6.7-.42,1.13-.82,2.28-1.13,3.46-.31,1.19-.53,2.41-.65,3.64-.46,4.9.44,9.82,2.1,14.37,1.61,4.55,3.9,8.77,6.17,12.93.01.03.03.05.04.08h0s0,.02,0,.02l1.68,3.27-.66-3.66s-.01-.08-.02-.12c-.66-3.67-.6-7.42.2-11,.39-1.8.98-3.57,1.74-5.24.77-1.67,1.76-3.27,2.77-4.9,1.05-1.65,2.09-3.34,3.05-5.08-.48,4.64-1.31,9.25-1.87,13.94-.68,5.56-.97,11.33.31,16.98.03.12.05.23.08.35l1.17,4.86.8-5c.01-.11.02-.22.03-.34.13-.98.41-2.04.75-3.03.09-.26.18-.51.28-.77.16,2.39.49,4.76,1.01,7.09.72,3.25,1.85,6.48,3.62,9.34,1.72,2.84,3.69,5.48,5.27,8.32,1.46,2.56,2.57,5.4,2.57,8.32,0,.22-.01.45-.02.67,0,.05-.01.09-.01.14l-.1,2.09.87-1.9c3.5-7.64,7.04-15.35,9.08-23.63,1.05-4.11,1.63-8.38,1.68-12.66,0-1.99-.11-3.96-.11-5.89,0-.16,0-.31.31-4.37l1.23,1.42,1.26,1.48c.41.48.82.99,1.12,1.45l2.25,3.31-.41-3.94c-.02-.15-.03-.3-.04-.45-.18-2.24-.03-4.62.14-6.94.21-2.49.52-4.99.95-7.46.21-1.23.46-2.46.75-3.68.14-.61.29-1.22.45-1.82.19-.61.31-1.21.55-1.73.4-.82.84-1.64,1.27-2.47,1.08,3.42,1.2,7.08,1.1,10.69-.09,3.95-.56,7.91-.53,11.94.07,7.85,1.62,15.69,4.59,23,.07.19.14.37.22.56h0s1.17,2.93,1.17,2.93l.72-3.09c.98-4.22,3.55-7.95,6.18-11.61,1.32-1.84,2.69-3.69,3.9-5.67,1.21-1.96,2.34-3.99,3.3-6.09,1.96-4.18,3.41-8.6,4.35-13.12.46-2.27.8-4.56,1-6.86Z"/>
    <path class="cls-13" d="m228.26,209.96c-.5-3.85-1.54-7.64-2.93-11.31l-.31-.82.75-.45c.82-.5,1.71-.86,2.64-1.06-2.45-3.61-4.7-7.36-6.71-11.24-1.93-3.73-3.63-7.56-5.14-11.46-4.62,5.67-10.26,10.45-16.47,14.22-4.98,3.04-10.32,5.44-15.85,7.2,1.43,1.77,2.98,3.42,4.64,4.94,1.18-1.33,2.47-2.58,3.88-3.66,2.5-1.94,5.43-3.43,8.57-4.04,3.13-.61,6.47-.4,9.42.91l-.42.96c-2.74-1.16-5.84-1.3-8.75-.67-2.92.62-5.63,2.05-7.96,3.93-1.33,1.07-2.53,2.27-3.64,3.58-.85.99-1.64,2.04-2.4,3.14-.85,1.19-1.89,2.43-3.22,3.32-.2-.12-.42-.09-.61.06-.05.04-.05.04-.02.02-.03.02-.06.04-.08.06-.06.04-.11.08-.17.12-.1.07-.21.13-.31.19-.24.13-.46.23-.67.31-.51.2-1.04.39-1.58.48-.24.04-.4.33-.35.57-.06-.02-.12-.04-.19-.07-.25-.11-.49-.25-.71-.42-.02-.02-.04-.04-.07-.05,0,0,0,0,0,0-.03-.03-.06-.06-.1-.08-.12-.07-.26-.08-.38-.04-1.6-1.5-2.62-3.36-3.81-4.96-.6-.84-1.25-1.62-1.98-2.27-.73-.64-1.57-1.18-2.47-1.65-1.8-.95-3.83-1.65-5.74-2.83-.81-.49-1.56-1.05-2.27-1.66-2.66-2.29-4.61-5.33-6-8.45-1.59-3.54-2.6-7.23-3.48-10.9-1.03.35-2.04.77-3.01,1.26-.67.34-1.38.73-1.88,1.1-.25.19-.45.38-.59.56-.14.19-.22.35-.3.58-.34.88-.26,2.73-.26,4.26.02,1.58.13,3.15.33,4.71.39,3.11,1.25,6.14,2.56,9,1.25,2.8,2.94,5.42,4.82,7.91.46-.19.93-.37,1.4-.52,2.33-.77,4.76-1.17,7.19-1.18l.02.66c-2.35.14-4.68.64-6.86,1.48-1.09.43-2.15.92-3.17,1.51-1.02.58-2.03,1.24-3.17,1.78-1.14.56-2.38.87-3.53,1.16-1.15.29-2.29.6-3.4.96-1.11.36-2.19.79-3.22,1.3-1,.49-2.03,1.14-3.05,1.74-1.01.61-2.01,1.24-2.91,1.92-.45.33-.88.69-1.21,1.05-.35.35-.53.77-.49.79.11,1.12.28,2.31.48,3.47l.3,1.72c.1.56.23,1.18.36,1.57.02.03.01.04.04.09l.1.18.22.34c.14.22.3.43.47.62.34.38.72.69,1.14.87.82.39,1.88.18,2.94-.25l6.54-2.91.32.65-6.35,3.42c-.53.26-1.09.5-1.73.63-.13,1.61-.12,3.31-.08,4.97.03,1.89.23,3.73,1.52,4.66.63.48,1.46.76,2.32.87.87.1,1.8.04,2.75-.06l2.91-.29c.94-.1,1.97-.18,2.81-.33l.29,1.12c-1.06.24-1.97.33-2.95.48l-2.89.39c-.54.08-1.1.15-1.67.18-.74,2.15-1.19,4.34-.91,6.51.08.58.17,1.17.33,1.74.12.54.34.94.67,1.34.32.39.74.71,1.21.96.48.24,1.1.49,1.64.73,4.51,1.86,9.48,2.58,14.34,2.19,2.43-.19,4.84-.66,7.16-1.41,2.34-.74,4.49-1.81,6.7-3.04,4.39-2.41,8.76-4.92,13.12-7.42l.41-.24.43.16.84.3c5.48-3.19,11.24-5.92,17.18-8.15l.75-.28-.04.79-.08,1.98c2.12-1.51,4.48-2.67,6.96-3.43l.76-.23-.1.78c-.09.78-.06,1.59.09,2.37,3.02-3.58,6.79-6.55,11.1-8.35.02-.33.12-.62.22-.86.3-.64.52-.96.75-1.4.21-.42.43-.84.62-1.27.38-.87.71-1.76.97-2.68,1.06-3.66,1.15-7.59.67-11.43Zm-46.16.56c-.42-.15-.81-.34-1.19-.56.01-.02.03-.04.03-.07.02-.08.01-.16,0-.24.07.01.15.02.23,0,.35-.06.69-.16,1.03-.28.98.45,2.03.64,3.06.37l.27.96c-1.14.32-2.37.23-3.44-.19Z"/>
    <g>
      <path class="cls-17" d="m134.31,35.82l-13.29,7.89c-.32-.55-.64-1.11-.95-1.66-.24-.43-.47-.87-.69-1.31-.11-.22-.22-.44-.32-.66l-.14-.33c-.03-.11-.04.03-.16,0,5.6-2.77,11.13-5.56,16.68-8.39l7.93,6.19-8.38-1.86-.33-.07-.35.2Z"/>
      <path class="cls-17" d="m106.47,40.19c-.25,1.5-.53,2.89-.77,4.21l-15.57-3.16-.24-.05-.17.13-5.59,4.15,7.4-7.42c4.98.75,9.92,1.45,14.94,2.14Z"/>
      <path class="cls-17" d="m50.86,251.13c.11.6.29,1.19.51,1.77-.05.07-.09.14-.14.21-2.64-.66-5.68-.94-8.63-1.22-4.61-.43-9.38-.88-12.86-2.69-9.34-4.86-17.76-12.94-26.42-25.36,3.44-.84,6.79-2,9.99-3.47,1.07,1.23,2.19,2.39,3.31,3.53l1.93,1.98c.61.63,1.19,1.29,1.74,2.01,2.22,2.84,4.28,5.9,6.4,8.9l.78,1.24.02-1.47c0-.06,0-.13.01-.19,0-.75.06-1.51.14-2.26l.13-.86c2.91,3.76,6.64,6.76,10.48,9.38,4.17,2.87,8.51,5.39,12.58,8.28,0,.07.02.15.03.22Z"/>
      <path class="cls-13" d="m182.23,193.5s0,.06.01.09c0-.04,0-.09.02-.13,0,.01-.02.02-.03.04Z"/>
      <path class="cls-2" d="m126.5,160.78c0-3,0-5,1-8,.76,4.57,2.69,9.13,5.33,13.26-2.18-6.36-3.33-13.05-3.39-19.75-.03-4.03.44-7.99.53-11.94.1-3.61-.02-7.27-1.1-10.69-.43.83-.87,1.65-1.27,2.47-.24.52-.36,1.12-.55,1.73-.16.6-.31,1.21-.45,1.82-.29,1.22-.54,2.45-.75,3.68-.43,2.47-.74,4.97-.95,7.46-.17,2.32-.32,4.7-.14,6.94.01.15.02.3.04.45l.41,3.94-2.25-3.31c-.3-.46-.71-.97-1.12-1.45l-1.26-1.48-1.23-1.42c-.31,4.06-.31,4.21-.31,4.37,0,1.34.04,2.7.08,4.08,2.02,2.94,4.53,5.56,7.38,7.84Z"/>
      <path class="cls-2" d="m107.52,192.94l.1-2.09c0-.05.01-.09.01-.14.01-.22.02-.45.02-.67,0-2.92-1.11-5.76-2.57-8.32-1.58-2.84-3.55-5.48-5.27-8.32-1.77-2.86-2.9-6.09-3.62-9.34-.52-2.33-.85-4.7-1.01-7.09-.1.26-.19.51-.28.77-.34.99-.62,2.05-.75,3.03-.01.12-.02.23-.03.34l-.8,5-1.17-4.86c-.03-.12-.05-.23-.08-.35-1.28-5.65-.99-11.42-.31-16.98.56-4.69,1.39-9.3,1.87-13.94-.96,1.74-2,3.43-3.05,5.08-1.01,1.63-2,3.23-2.77,4.9-.76,1.67-1.35,3.44-1.74,5.24-.8,3.58-.86,7.33-.2,11,.01.04.01.08.02.12l.66,3.66-1.68-3.27h-.01v-.02s-.03-.05-.04-.08c-2.27-4.16-4.56-8.38-6.17-12.93-1.66-4.55-2.56-9.47-2.1-14.37.12-1.23.34-2.45.65-3.64.31-1.18.71-2.33,1.13-3.46.84-2.26,1.78-4.45,2.38-6.7.6-2.24.85-4.61.36-6.85-.08-.35-.17-.7-.3-1.04-2.52,1.22-5.13,2.17-7.71,3.08-2.08.73-4.15,1.43-6.15,2.22-2.34.92-4.48,1.98-6.07,3.61-1.62,1.64-2.92,3.84-4.36,6.01l-8.55,12.91-8.64,12.86-8.65,12.86c-.17.27-.38.57-.49.75-.12.21-.14.26-.16.39-.06.26.07.86.23,1.44.29,1.15.69,2.28,1.25,3.35.54,1.08,1.21,2.12,1.96,3.1.77.97,1.63,1.87,2.55,2.73,1.85,1.71,3.99,3.12,6.25,4.27,2.27,1.15,4.64,2.12,7.08,2.8,4.78,1.39,9.88,1.71,14.61.64.13-1.8.35-3.6.65-5.39.39-2.08.84-4.16,1.5-6.18.15-.54.33-1.07.52-1.59l-.14.12c-4.8-5.84-7.26-13.38-6.92-20.74h.55c.13,6.91,2.78,13.65,7.23,18.71.32-.82.66-1.58.72-2.3.08-.84-.29-1.74-.69-2.71-.39-.98-.78-1.95-1.15-2.94-.75-1.97-1.43-3.97-1.97-6.02-2.21-8.22-1.61-17.13,1.62-24.97l.88.36c-3.07,7.68-3.56,16.35-1.33,24.29.55,1.99,1.24,3.95,1.99,5.88.38.97.77,1.94,1.17,2.9.39.94.91,2.03.82,3.31-.11,1.25-.65,2.23-.96,3.18-.36.97-.72,1.94-.99,2.93-.62,1.96-1.03,3.99-1.4,6.02-.64,4.07-.82,8.22-.64,12.35.21,4.14.76,8.26,1.55,12.33.41,2.04.85,4.05,1.36,6.08.5,2.04,1,4.12,1.2,6.3.41,4.33-.68,8.51-1.72,12.46,1.17.61,2.19,1.49,3.03,2.47,1.26,1.47,2.22,3.13,3.13,4.77.91,1.64,1.76,3.33,2.47,5.09,1.43,3.49,2.38,7.36,1.9,11.33v.02s-.05.44-.05.44l-.41.24-3.04,1.79c-.52.29-.97.62-1.68.91-.29.11-.63.21-1.01.22.49.6.95,1.23,1.38,1.88.38.57.74,1.16,1.07,1.77s.66,1.19.92,1.91c.29.72.29,1.67.07,2.39-.2.74-.45,1.34-.67,1.98l-1.37,3.82-.33.91-.91-.34h-.01c-.77-.28-1.52-.59-2.26-.91-.07-.16-.14-.32-.21-.49-.11-.25-.47-.3-.68-.18-.25.15-.29.44-.18.68.47,1.06.93,2.14,1.16,3.28.04.17.18.29.35.34.3,1.69.36,3.45.03,5.22l-.08.42c2.3,1.04,4.57,2.16,6.83,3.26,6.4-24.68,7.89-50.03,1.28-76.47-4-14-4-29,2-42,3,2,4,6,8,7v-7c3,12,8,22,16,31,2,2,3,4,3,7,0-2.19.6-4.38.81-6.57l-.79,1.73Z"/>
      <path class="cls-15" d="m68.05,264.84c-1.89-.89-3.73-1.87-5.53-2.9-1.56-.87-3.09-1.77-4.62-2.68-1.51-.9-3.12-1.82-4.46-3.17-.36-.36-.69-.75-.98-1.17-1.15,1.94-1.85,4.11-1.69,6.25.08,1.26.49,2.49,1.12,3.57.65,1.08,1.6,2.05,2.61,2.93,2.02,1.77,4.45,3.05,7.03,3.94.08.03.17.06.25.08,2.25.76,4.6,1.25,6.98,1.54.35-1.52.39-3.15.2-4.75-.15-1.24-.45-2.47-.91-3.64Z"/>
      <path class="cls-13" d="m76.37,247.98h.02c.58-3.33-.05-6.86-1.28-10.13-.62-1.72-1.39-3.39-2.23-5.03-.83-1.65-1.71-3.27-2.88-4.63-1.14-1.37-2.6-2.46-4.29-2.94-1.67-.5-3.5-.24-4.88.82-.13.1-.23.22-.35.32-.55,10.97,9.04,16.83,15.9,21.59Z"/>
      <path class="cls-15" d="m57.68,235.18v.11s.05.03.07.05l.2.14c.25.2.5.41.74.62.47.42.91.87,1.32,1.33.83.92,1.53,1.88,2.29,2.76l4.64,5.31c.77.89,1.56,1.77,2.35,2.64l1.18,1.31c.4.44.78.91,1.11,1.12.33.2.5.2.92.02.38-.18.87-.55,1.36-.88l2.5-1.73c-6.86-4.76-16.44-10.62-15.9-21.59-1.19,1.04-2.01,2.49-2.4,4.06-.21.87-.33,1.76-.38,2.67-.03.45-.02.91-.02,1.37v.69Z"/>
      <path class="cls-13" d="m73.39,261.56c.27-.6.58-1.21.78-1.73.2-.57.25-1.02.1-1.6-.14-.56-.42-1.2-.68-1.8-.26-.6-.55-1.2-.87-1.78-.48-.89-1.02-1.75-1.61-2.58-.15-.07-.28-.15-.4-.24-.64-.48-.96-.98-1.34-1.42l-1.13-1.36c-.75-.91-1.5-1.81-2.27-2.7l-4.59-5.38c-.76-.92-1.49-1.83-2.32-2.6-.41-.38-.85-.72-1.31-1-.04-.03-.09-.06-.14-.08-1.4,1.2-2.57,2.48-3.55,3.91-.49.72-.95,1.46-1.31,2.22-.02.03-.03.07-.04.1,1.53,10.53,11.86,14.64,20.68,18.05Z"/>
      <path class="cls-15" d="m52.7,243.51c-.16.35-.29.7-.4,1.05-.11.41-.2.83-.28,1.25-.31,1.69-.36,3.43-.01,5.07.21,1.06.6,2.06,1.17,2.95.32.5.69.97,1.12,1.38,1.21,1.16,2.73,1.99,4.28,2.86,1.55.86,3.1,1.72,4.66,2.54,1.04.54,2.09,1.05,3.15,1.55-.06.18-.03.38.11.51.29.28.68.39,1.05.53.35.13.71.26,1.06.39.2.07.43-.04.55-.21.96.39,1.91.76,2.89,1.07l1.31-2.84s.01-.03.02-.05c-8.83-3.41-19.16-7.51-20.68-18.05Z"/>
      <path class="cls-13" d="m28.5,217.78c.05.39.12.76.19,1.14.04-.38,0-.76-.19-1.14Z"/>
      <path class="cls-13" d="m65.85,224.24c-3.48-3.53-6.34-7.66-8.4-12.17-.1-.19-.18-.38-.27-.58l-1.13-2.55,2.49,1.25c.25.13.53.21.82.25-1.28-1.22-2.46-2.53-3.54-3.93-1.51-1.92-2.76-4.09-3.88-6.16-1.14-2.07-2.4-3.97-4.2-5.36-1.77-1.41-3.91-2.38-6.16-2.75l.2-1.28c2.48.34,4.86,1.35,6.86,2.86,1,.75,1.91,1.65,2.68,2.64.05.07.11.14.16.21,1.65-1.31,3.1-2.69,4.4-4.19-5.86-2.89-12.55-5.63-17.38-3.7-14,7-21,19-11,35-.81-1.62,1-3.24,1.19-4.86-.07-.37-.14-.75-.19-1.14.19.38.23.76.19,1.14,2.26,11.87,14.17,17.28,23.12,23.91.4-.79.86-1.53,1.36-2.23.97-1.39,2.02-2.74,2.73-4.25-.02-.01-.04-.02-.06-.04-.05-.26-.08-.56-.05-.83.01-.17.02-.2.04-.26l.03-.18.13-.69.28-1.41c.2-.94.42-1.88.74-2.8.61-1.84,1.66-3.59,3.24-4.82.79-.6,1.74-1.04,2.74-1.2.98-.17,1.98-.08,2.92.15.01-.03.02-.07.03-.11l-.09.09Z"/>
      <path class="cls-15" d="m28.7,218.91c-.19,1.62-2,3.24-1.19,4.86-10-16-3-28,11-35,4.83-1.93,11.53.8,17.38,3.7,2.15-2.48,3.89-5.32,5.46-8.83-4.3-.05-8.51-.85-12.49-2.18-2.49-.84-4.91-1.88-7.22-3.11-2.33-1.2-4.55-2.62-6.66-4.23-2.09-1.64-4.01-3.58-5.46-5.93-.26-.42-.51-.86-.72-1.31-2.39,1.95-4.41,4.34-6.14,6.94-1.86,2.78-3.4,5.78-4.83,8.85-2.4,5.08-4.52,10.43-7.54,15.39.26-.14.52-.3.77-.46l3.08-2.02-1.43,3.4c-.08.19-.15.37-.22.56-1.24,3.08-2.03,6.47-2.11,9.75-.03,1.72.18,3.48.93,4.82.88,1.52,1.93,2.97,3.09,4.35,1.15,1.38,2.41,2.7,3.69,4.02l1.92,2c.66.72,1.26,1.47,1.82,2.22,1.79,2.47,3.32,5.06,4.68,7.74-.02-.13-.02-.27-.02-.4,0-.43.01-.87.06-1.31.04-.45.1-.9.27-1.39h0s.45-1.39.45-1.39l.84,1.25c2.79,4.16,6.7,7.49,10.84,10.43,3.82,2.73,7.87,5.18,11.72,7.97-.1-1.35.01-2.69.26-4,.09-.44.19-.89.31-1.33.14-.46.31-.92.52-1.34.02-.04.04-.08.06-.12-8.95-6.63-20.86-12.04-23.12-23.91Z"/>
      <path class="cls-15" d="m82.5,129.78c3-9,9-17,7-28-7.48-28.05-20.2-66.58,2.69-87.82-1.17.65-2.32,1.34-3.43,2.07-.75.51-1.5,1.05-2.33,1.56-.82.51-1.68.93-2.55,1.32-2.5,1.1-5.11,1.85-7.74,2.38l1.54.43,2.26.61c.74.19,1.5.39,2.2.52l2.52.48-2.03,1.69c-1.65,1.31-3.18,2.76-4.55,4.36-1.36,1.59-2.56,3.32-3.52,5.17-1.94,3.71-2.82,7.88-2.72,12.13.06,4.26.81,8.56,1.03,12.98.15,3.39-.03,6.94-1.1,10.24,1.04-1.19,1.93-2.51,2.62-3.91l1.16-2.35.6,2.6h0c.04.21.09.41.13.61,1.55,7.09,2.66,14.38,2.43,21.75-.12,3.78-.61,7.57-1.55,11.27-.67,2.59-1.55,5.13-2.64,7.59,1.87-.47,3.75-.88,5.62-1.28-.12-.22-.26-.44-.4-.65-.33-.5-.69-.99-.98-1.55-.29-.56-.5-1.22-.42-1.89l.52.05c-.06,1.09.75,2.02,1.47,2.97.74.98,1.32,2.13,1.62,3.34.63,2.43.44,4.96-.11,7.34-.57,2.39-1.49,4.63-2.28,6.86-.8,2.24-1.41,4.47-1.62,6.79-.44,4.64.48,9.34,2.01,13.78,1.03,2.91,2.31,5.75,3.67,8.55-2.28-7.36-3.95-14.92-1.12-21.99Z"/>
      <path class="cls-15" d="m104.5,170.78c-5-10-8-22-6-34-1,2-3,4-3,6,1-12,9-23,4-35,0,1.96-.23,3.85-.6,5.69l.23.04c-.44,3.86-1.43,7.69-2.97,11.29-.42,1.03-.89,2.04-1.39,3.04-.25,5.46-1.09,10.85-1.56,16.23-.39,4.34-.52,8.74.11,12.97.5-1.17,1.09-2.28,1.88-3.34l1.33-1.76v2.18c-.01,3.24.28,6.49.93,9.67.66,3.17,1.68,6.25,3.34,9.02,1.63,2.82,3.56,5.5,5.14,8.44,1.26,2.32,2.29,4.92,2.5,7.62.02-.05.05-.11.07-.16.97-5.98-1.02-11.95-4.01-17.93Z"/>
      <path class="cls-13" d="m163.53,103.35s.09.07.13.11c-.08-.16-.16-.33-.24-.49.04.13.08.25.12.38Z"/>
      <path class="cls-13" d="m129.26,122.87s0,.01,0,.02c.01-.03.02-.06.03-.1-.01.02-.02.05-.04.08Z"/>
      <path class="cls-13" d="m182.32,101.92c-.85-1.66-1.91-2.68-3-4.19-1.07-1.51-2.29-2.93-3.57-4.34-2.55-2.81-5.33-5.59-7.46-9.05-1.05-1.72-1.92-3.6-2.47-5.61-.53-2.01-.71-4.19-.34-6.33l.22-1.23h1.14c1.29.01,2.58.14,6.51,1.15l-2.15-3.87c-1.03-2.16-1.85-4.42-2.52-6.71-1.34-4.58-2.11-9.27-2.83-13.93-.7-4.65-1.39-9.28-2.57-13.77-1.18-4.48-2.85-8.84-5.46-12.59-1.31-1.88-2.78-3.6-4.58-4.95-1.77-1.38-3.8-2.42-5.93-3.28-2.12-.84-4.38-1.55-6.6-2.25-2.23-.69-4.47-1.33-6.73-1.86-7.76-1.83-15.69-3.04-23.55-4.82l4.65,4.23,1.94,1.76-2.56-.35h-.01c-.15-.02-.3-.04-.44-.07-.83-.13-1.59-.35-2.3-.44-.89-.1-1.77-.21-2.67-.22-1.79-.05-3.59.1-5.36.41-3.55.66-6.98,1.94-10.21,3.63-.43.22-.85.47-1.27.71-22.89,21.24-10.17,59.77-2.69,87.82,2,11-4,19-7,28-2.83,7.07-1.16,14.63,1.12,21.99.07.15.14.3.22.45-.3-2.46-.23-4.97.24-7.42.37-1.97.95-3.9,1.8-5.72.83-1.85,1.92-3.51,2.97-5.13,2.13-3.22,4.19-6.39,5.87-9.8,1.67-3.4,2.92-7.01,3.81-10.74l.37.06c.38-1.85.6-3.74.6-5.69,5,12-3,23-4,35,0-2,2-4,3-6-2,12,1,24,6,34,2.99,5.98,4.98,11.95,4.01,17.93,3.02-7.06,5.94-14.17,7.6-21.62.93-4.05,1.38-8.2,1.33-12.33-.06-4.1-.77-8.45.46-12.84l.56-2.16,1.24,1.91c.3.46.71.97,1.12,1.45l1.27,1.48.69.8c0-.31.03-.62.05-.93.07-1.28.21-2.56.37-3.83.34-2.53.77-5.05,1.34-7.54.27-1.25.59-2.48.93-3.71.18-.62.37-1.23.56-1.84.22-.59.37-1.24.72-1.84.58-1.04,1.22-1.97,1.8-2.95,0-.01-.01-.03-.01-.04l.05-.02c.05-.08.1-.17.15-.25.45-.79.88-1.61,1.26-2.44.5-2.81.5-5.72.5-8.23,1,6,4,12,5,18,1.84,11.97-2.23,23.94.23,35.12,1.35-2.89,3.19-5.5,4.97-7.98,1.32-1.85,2.66-3.66,3.82-5.56,1.17-1.9,2.26-3.85,3.19-5.88,1.89-4.05,3.3-8.32,4.2-12.69.44-2.19.77-4.4.97-6.62.15-2.01.22-4.02.18-6.04,0-.22,0-.43-.01-.65l-.08-2.66,1.81,1.94c2.16,2.32,4.85,4.15,7.8,5.32-.44-2.17-.41-4.38-.23-6.48.22-2.74.67-5.4.75-8.05.08-1.9-.12-3.8-.53-5.67-.15-.72-.33-1.44-.54-2.15-.75-2.57-1.77-5.07-2.81-7.56l.17-.08c-.54-1.71-.89-3.48-.89-5.31,5,8,19.1,23.53,27.1,28.53,1.68.84-1.03-8.14-.32-5.89-.6-3.08-1.55-6.68-2.97-9.5Zm-76.02-55.33l-16.19-4.33-8.65,5.9-.03.02-2.13,1.44,1.76-1.86.04-.04,9.91-10.56.17-.19.26.04c5.28.8,10.58,1.66,15.81,2.54.1,1.88.26,3.95.3,6.1l.02,1.28-1.27-.34Zm39.05-7.58l-10.3-1.31-13.85,8.26-.95.57-.48-.99c-.38-.96-.73-1.91-1.07-2.88-.17-.48-.33-.97-.48-1.47-.08-.25-.15-.5-.22-.75l-.09-.39c-.05-.14-.09-.52-.04-.73,5.77-3.02,11.59-6.03,17.41-9l.28-.14.25.19,9.94,7.75,1.5,1.17-1.9-.28Z"/>
      <path class="cls-15" d="m135.5,129.78c-1-6-4-12-5-18,0,2.51,0,5.42-.5,8.23.14-.3.29-.6.42-.91l.29.09c-.32,1.25-.84,2.45-1.41,3.6-.01.03-.02.06-.03.1,1.41,3.66,1.66,7.63,1.67,11.47.02,4-.33,7.98-.18,11.91.26,6.95,1.71,13.84,4.26,20.28.21-.56.46-1.11.71-1.65-2.46-11.19,1.61-23.16-.23-35.12Z"/>
    </g>
    <path class="cls-13" d="m85.07,85.94c.56,1.8,1,5.84.99,7.73-.01,1.7.62,2.9.37,4.58-.33,2.21-.66,4.43-1.29,6.57,2.53-2.7,4.31-6.08,5.11-9.69"/>
    <path class="cls-13" d="m81.52,31.6c-2.64,5.91-3.79,10.35-4.37,14.46s-.8,8.34-2.26,12.23c1.8-1.25,3.39-2.79,4.7-4.54-2.44,5.34.12,11.67-1,17.43,2.57-3.34,4.04-7.51,4.12-11.72"/>
    <path class="cls-15" d="m91.91,19.22c3.19-3.44,6.76-6.58,10.68-8.99.25-.15.51-.29.76-.43-.39-.24-.88-.34-1.45-.23-13.86,2.81-20.92,16.27-26.41,27.92-1.09,2.32,2.36,4.35,3.45,2.02,3.3-7.01,7.12-14.93,12.96-20.29Z"/>
    <path class="cls-13" d="m98.46,15.32c-10.7,4.93-18.84,15.09-21.33,26.6-.47,2.2-.75,4.43-1.03,6.66-.4,3.2-.8,6.4-1.2,9.6,3.42-3.61,4.22-8.87,5.96-13.53,3.2-8.59,9.79-15.4,16.21-21.95"/>
    <g>
      <path class="cls-9" d="m161.55,134.6c-.3.7-.56,1.42-.77,2.15l.77-2.15Z"/>
      <path class="cls-9" d="m161.55,134.6c.14-.34.3-.67.46-.99.03-.18.06-.36.08-.54l-.55,1.54Z"/>
    </g>
    <path class="cls-9" d="m161.5,146.78c6.86-12.01,6.37-24.02,6.09-36.66-.41-.07-.83-.14-1.24-.23-1.24-.25-2.55.56-2.53,1.93.03,1.62.11,3.23.22,4.84-.25,1.69-.35,3.37-.17,5.07.1.93.26,1.86.47,2.77-.03-.13.13.89.24.53-.1.33-.87.76-1.12.99-.12.12-.23.24-.34.37-2.95-.98-5.7-2.54-8.05-4.58-.01,1.51-.07,3.01-.19,4.52-.2,2.3-.54,4.59-1,6.86-.94,4.52-2.39,8.94-4.35,13.12-.96,2.1-2.09,4.13-3.3,6.09-1.21,1.98-2.58,3.83-3.9,5.67-2.63,3.66-5.2,7.39-6.18,11.61l-.72,3.09s-1.17-2.92-1.17-2.93c-.08-.19-.15-.37-.22-.56-.44-1.07-.83-2.16-1.2-3.25-2.64-4.13-4.56-8.69-5.33-13.26-1,3-1,5-1,8-2.86-2.28-5.37-4.91-7.38-7.84.01.6.03,1.21.03,1.81-.05,4.28-.63,8.55-1.68,12.66-2.04,8.28-5.58,15.99-9.08,23.63l-.08.17c-.21,2.19-.81,4.38-.81,6.57,0-3-1-5-3-7-8-9-13-19-16-31v7c-4-1-5-5-8-7-6,13-6,28-2,42,6.61,26.44,5.12,51.8-1.28,76.47,2.39,1.17,4.78,2.33,7.2,3.39,1.53.66,3.07,1.28,4.63,1.83.17.23.4.44.72.6,8.64,4.19,18.26,5.46,27.78,5.27,4.22-.08,8.42-.43,12.61-.85-13.33-50.52,5.55-98.08,31.33-141.71Z"/>
    <path class="cls-15" d="m173.82,101.83c-6.33-3.45-11.91-8.25-16.28-13.97.74,6.68,5.34,12.5,5.86,19.2.06.72.07,1.49.45,2.11.04.07.1.11.15.17.16-.18.39-.32.61-.38.34-.09.66-.02.97.13.41.2.77.48,1.12.78.26.06.51.13.77.17.73.13,1.46.25,2.18.42.93.22,1.85.52,2.73.92.55-.03,1.09-.08,1.63-.17,2.1-.34,7.92,7.59,10.23,5.49.91-.82-8.13-13.63-10.4-14.87Z"/>
    <path class="cls-9" d="m164.4,195.91c.19-4.23,1.36-8.42,3.38-12.14-6.81-6.27-11.19-15.1-12.08-24.32.12,1.26-1.87,4.11-2.38,5.33-.66,1.58-2.06,3.89-2.12,5.62-.08,2.16,2.33,3.96,2.93,6.15,1.96,7.21,5.18,13.82,10.28,19.36Z"/>
    <path class="cls-2" d="m158.56,152.77c1.31,5.73,1.98,11.6,2,17.47,0,2.06-.54,4.71-2.57,5.05-.19,3.2-.83,6.36-1.88,9.39,2.59,4.28,5.65,8.29,9.09,11.93.19-5.31,1.09-10.59,2.68-15.67,2.5,5.5,5.84,10.62,9.87,15.13.56.63,6.98-2.19,7.7-2.59,1.73-.96,5.94-1.92,5.94-1.92,0,0-10.91-10.58-13.43-13.16-7.51-7.68-14.05-16.31-19.39-25.63Z"/>
    <path class="cls-2" d="m145.82,176.94c-2.08,2.63-4.21,5.34-5.17,8.55-1.19,3.98-.44,8.28.79,12.24s2.36,7.83,3.67,11.89c4.01-.02,8.04-2.81,9.59-4.52-.77-.88-3.77-4.79-4.71-7.69s-1.51-5.93-2.72-8.73"/>
    <path class="cls-2" d="m126.66,221.1c-.36.94-.29,1.99-.2,2.99.23,2.74.46,5.51,1.35,8.11.79,2.32,2.07,4.44,3.07,6.68,1.33,2.95,2.19,6.11,2.55,9.32.35,3.16.22,6.46,1.48,9.38,1.47,3.4,4.58,5.76,7.62,7.89,2.42,1.7,4.94,3.38,7.81,4.12,2.67.69,5.68.59,7.9,2.23-.9-5.33-1.41-10.73-1.53-16.14-4.34.11-8.7-1.02-12.44-3.23-1.27-.75-2.51-1.67-3.17-2.99-1.18-2.35-.2-5.13.5-7.66.1-.35.19-.71.14-1.07-.18-1.19-1.68-1.54-2.75-2.09-1.61-.83-2.57-2.6-2.89-4.38s-.12-3.61.04-5.42c.03-.37.06-.75-.1-1.08-.15-.32-.46-.53-.74-.74-2.4-1.83-3.67-4.64-3.95-7.59-.11-1.18.38-3.22.38-3.22,0,0-4.71,3.98-5.07,4.89Z"/>
    <path class="cls-15" d="m145.61,223.97c-1.51,4.89.49,10.65,4.7,13.56-1.63,6,.83,12.9,5.89,16.51-3.45.18-6.93-.27-10.21-1.33-1.2-.39-2.41-.88-3.34-1.74-1.44-1.35-1.99-3.45-1.89-5.42s.77-3.87,1.43-5.73c-2.49-.23-4.8-1.85-5.85-4.11-1.06-2.26-.82-5.08.6-7.13-2.94-.95-4.72-4.09-5.08-7.16-.23-1.96.06-4.12,1.4-5.57,1.34-1.45,4.07-2.87,5.93-3.47,2.17-.7,3.34-3.71,2.73-1.39-.7,2.67-.26,6.68.48,8.64.19.51,3.15,4.52,3.21,4.35Z"/>
    <path class="cls-15" d="m146.47,178.66c.78-.43,1.56-.86,2.34-1.29-.42,10.5,5.28,21.02,14.29,26.41-2.56.2-5.08.94-7.36,2.14-2.68,1.42-7.25-10.07-7.89-12.04-.79-2.45-1.31-4.98-1.54-7.53-.09-1-.77-7.17.16-7.68Z"/>
    <path class="cls-13" d="m161.21,90.65c.05.04-.02-.02-.04-.03-.03-.03-.07-.05-.1-.08-.06-.05-.12-.1-.17-.15-.12-.1-.24-.21-.36-.32-.24-.22-.47-.46-.68-.71-.07-.09-.13-.15-.18-.22,0-.06,0-.13-.02-.19-.19-.54-.55-.99-1.04-1.3-.44-.27-.92.26-.68.68.7,1.24,1.64,2.3,2.77,3.17.21.16.57.04.68-.18.14-.26.04-.51-.18-.68Z"/>
    <path class="cls-17" d="m204.35,235.26c-2.74.96-5.49,1.93-8.17,3.05-1.42.59-2.82,1.23-4.24,1.84-1.2.46-2.4.93-3.58,1.44-.02,0-.04.02-.06.02,0,0,0,0,0,0-.04.02-.08.03-.12.05-.52.22-.15,1.1.39.91.07-.02.13-.05.2-.08.03.02.05.05.09.06.34.09.67.2.99.33.58.25,1.08-.59.52-.85,1.37-.56,2.73-1.15,4.08-1.77.11-.05.17-.13.2-.22.6-.26,1.19-.52,1.79-.77,2.68-1.12,5.43-2.09,8.17-3.05.6-.21.34-1.18-.27-.96Z"/>
    <g class="cls-8">
      <g>
        <g>
          <path class="cls-1" d="m136.44,188.94c-.9-.6-2.03-.58-2.83.04-3.52,2.76-5.29,4.14-8.81,6.9-.38.3-.67.72-.84,1.19-.35-.76-.83-1.45-1.41-2.03-2.9-2.96-4.35-4.44-7.26-7.41.2.08.4.15.61.2.62.15,1.26.28,1.91.38,1.27.2,2.48.27,3.61.22,2.24-.1,3.95-1.96,4.08-4.42.1-2.04.15-3.06.25-5.1.14-2.74-1.29-5.43-3.54-6.7-.16-.09-.35-.19-.58-.32.57-.3,1.04-.8,1.35-1.44.92-1.71,1.39-2.56,2.31-4.27.02-.04.04-.08.07-.13.5-1.09.45-2.44-.12-3.59-.57-1.15-1.58-1.94-2.7-2.11-2.81-.43-4.21-.65-7.02-1.08.01-.14.02-.29.03-.44.23-4.62-2.91-8.9-7-9.53s-7.6,2.61-7.83,7.24c0,.15-.01.29-.01.44-1.05-.16-1.91-.29-2.72-.4,3.95,14.18,14.04,27.53,7.52,42.2-1.42-11.35-9.88-20.18-14.68-30.43-1.37.8-2.24,2.24-2.34,4.19-.06,1.2-.09,1.8-.15,2.99-.1,2.05.69,4.38,2.11,6.06,1.56,1.88,2.35,2.72,3.92,4.33-.64-.17-1.21-.31-1.66-.42-.06-.02-.1-.02-.16-.04-2.56-.58-4.74.71-4.87,3.48,0,.07,0,.1,0,.16-3.13-4.61-4.69-7.18-7.82-11.91-.72-1.09-1.82-1.78-2.76-1.69-.95.09-1.62.92-1.71,2.05-.38,4.81-.57,7.22-.94,12.05-.08,1.01.3,2.08,1.01,2.91.7.82,1.65,1.3,2.49,1.27.07,0,.1,0,.17,0,1.5,4.91,2.26,7.53,3.77,12.62.48,1.78,1.5,3.51,2.78,4.71,4.86,4.24,7.31,5.7,12.23,8.5l.03.02s.02.02.02.01c2.18,3.39,3.26,5.12,5.42,8.63.02.03.19.3.36.51.61.76,1.47.97,1.64,1.01,0,0,0,0,0,0,0,0,0,0,0,0,1.05.2,1.82-.49,1.91-.58,2.63-2.56,3.95-3.86,6.61-6.54.02-.02.03-.03.05-.05,0,0,.01-.01,0-.01h0c5.07-1.16,7.63-1.8,12.74-3.08.01,0,.02,0,.04,0,1.37-.42,2.53-1.5,3.17-2.94,1.92-4.1,2.87-6.14,4.77-10.17.06.04.1.06.16.1.81.51,1.78.52,2.55.05.78-.48,1.25-1.38,1.27-2.41.11-4.93.16-7.39.26-12.31.03-1.16-.55-2.3-1.46-2.91Z"/>
          <path class="cls-4" d="m97.98,156.57c-1.43-.21-2.71-.39-4.57-.73-1.12-.2-2.18.12-2.85.96-.67.84-.84,2.11-.47,3.41.01.05.03.1.05.16.74,2.11,1.11,3.15,1.85,5.19.25.8.71,1.49,1.27,1.99-.32.08-.64.15-.96.22-.54.12-1.04.31-1.48.57,4.8,10.24,13.26,19.08,14.68,30.43,6.52-14.67-3.57-28.02-7.52-42.2Z"/>
          <path class="cls-2" d="m106.14,197.21c.03-.62.06-1.25.09-1.91.14.14.27.28.4.41,2.76-9.3-.65-18.11-4.24-27.01-3.35-.09-6.52.4-9.43,1.15-.42.11-.8.29-1.13.53,4.89,9.41,12.35,17.81,13.68,28.41.23-.53.44-1.05.63-1.57Z"/>
          <path class="cls-9" d="m135.67,190.59c-.33-.22-.74-.22-1.03.02-3.52,2.76-5.29,4.14-8.81,6.9-.27.21-.41.57-.37.96.04.38.24.74.55.93.62.39.93.59,1.55.99-1.64,3.08-2.46,4.63-4.11,7.74-.22.44-.58.76-1.01.88-4.4.75-6.6,1.13-10.99,1.87.01-1,.02-1.5.03-2.49,3.01.02,5.86-.39,8.52-1.2,1.49-.46,2.52-1.94,2.62-3.75.06-1.23.09-1.84.16-3.06.07-1.43-.47-2.85-1.45-3.84-3.86-3.94-5.79-5.91-9.65-9.85.02-2.75.03-4.13.05-6.88.82.29,1.55.61,2.14.95-.03.65-.05.98-.08,1.64-.08,1.56.96,3.05,2.38,3.4.57.14,1.16.26,1.75.35,1.15.18,2.26.25,3.27.2,1.33-.06,2.35-1.16,2.42-2.62.1-2.04.15-3.06.25-5.1.09-1.87-.87-3.7-2.39-4.55-1.18-.67-4.75-2.54-9.66-3.9,0-.49,0-.73,0-1.22,3.26.5,4.9.76,8.16,1.26.61.09,1.17-.23,1.44-.83.93-1.73,1.4-2.6,2.33-4.33.22-.5.2-1.1-.05-1.62-.26-.52-.71-.88-1.22-.95-3.74-.58-5.61-.87-9.35-1.44.35-.74.56-1.57.61-2.48.17-3.49-2.2-6.71-5.28-7.19-3.09-.48-5.74,1.97-5.91,5.46-.05.91.09,1.8.36,2.63-1.67-.26-2.97-.44-4.23-.63.19.6.4,1.21.61,1.81.38.06.77.12,1.21.18-.19.38-.28.56-.47.94-.13-.02-.24-.04-.37-.06.7,1.91,1.46,3.82,2.22,5.72.5.08,1.01.16,1.59.25-.04.43-.06.64-.1,1.07-.33-.02-.65-.03-.97-.03,3.59,8.9,7,17.71,4.24,27.01,1.14,1.16,1.83,1.87,3.08,3.14-.03,4.98-.06,7.51-.12,12.6-1.04,1.13-1.56,1.7-2.6,2.82,6.38-1.18,9.58-1.86,16-3.15,0,0,0,0,.01,0s0,0,.01,0c.89-.26,1.62-.9,2.07-1.81,1.87-3.58,2.8-5.36,4.65-8.89.44-.12.66-.18,1.1-.3-1.09-.69-1.64-1.04-2.73-1.73,2.48-1.94,3.71-2.91,6.19-4.84-.07,3.46-.11,5.17-.19,8.66-.83-.53-1.25-.79-2.08-1.33-2.61,4.78-3.92,7.2-6.56,12.06-.36.58-.86,1.02-1.45,1.2-5.39,1.07-8.08,1.63-13.43,2.6-.34.1-.66.28-.92.54-1.92,1.83-2.87,2.74-4.78,4.53.53-10.01.8-15.31,1.26-24.59-.19.52-.4,1.05-.63,1.57-1.32-10.6-8.79-19-13.68-28.41-.85.6-1.4,1.59-1.46,2.87-.06,1.2-.09,1.8-.15,3-.07,1.41.47,2.96,1.44,4.05,3.86,4.41,5.81,6.07,9.69,10.02-.25,2.66-.37,3.98-.62,6.64-.61-.24-1.16-.49-1.61-.76h0c.08-1.54.11-2.31.19-3.85.07-1.4-.74-2.74-1.96-3.26-2.01-.85-3.72-1.25-4.8-1.54-.03,0-.06-.02-.1-.02-1.52-.35-2.81.51-2.9,2.16-.16,3.23-.24,4.84-.4,8.07-.09,1.84.86,3.94,2.38,4.98,1.07.74,4.11,2.33,8.33,3.65-.09,1-.14,1.5-.23,2.5-4.3-2.12-6.47-2.76-10.73-5.83-.41-.35-.72-.85-.89-1.39-1.35-3.89-2.02-5.87-3.36-9.83.64.02.97.02,1.61.02.32,0,.55-.21.62-.56.07-.35-.03-.78-.27-1.14-3.16-4.75-4.74-7.35-7.9-12.06-.27-.4-.66-.63-1-.61-.35.03-.59.31-.62.72-.38,4.79-.57,7.19-.94,11.99-.03.36.11.77.37,1.08.26.31.6.49.91.47.69-.04,1.03-.04,1.72-.05,1.73,5.75,2.61,8.77,4.35,14.67.33,1.22,1.03,2.4,1.92,3.23,4.86,4.21,7.32,5.51,12.23,8.32,0,0,.02.01.02.01.24.15.46.37.64.63,2.19,3.43,3.28,5.18,5.45,8.72h0s0,0,0,0c0,0,0,0,0,0,.03.05.07.1.11.15.01.01.02.03.03.04.05.06.11.11.17.15.02.01.04.02.06.03.04.03.08.06.13.08.03.01.05.02.08.03.04.01.07.03.11.04,0,0,0,0,0,0h0c.06.01.12.02.18.02.02,0,.04,0,.06,0,.03,0,.06,0,.09-.01,0,0,.02,0,.03,0,.02,0,.03-.01.05-.02.04-.01.08-.03.12-.05.01,0,.03-.02.04-.02.05-.03.1-.07.14-.11,0,0,0,0,0,0,2.63-2.56,3.95-3.86,6.61-6.53,0,0,0,0,.01-.01.2-.19.44-.35.69-.42,0,0,.02,0,.02,0,5.06-1.15,7.62-1.79,12.71-3.05.94-.29,1.74-1.03,2.18-2.02,2.22-4.76,3.32-7.12,5.52-11.8.66.42,1,.63,1.66,1.05.3.19.65.2.93.02.28-.17.46-.5.46-.88.11-4.95.16-7.4.26-12.32,0-.42-.2-.84-.53-1.06Zm-27.5-33.73c.4.06.71.48.69.94-.02.45-.37.77-.77.71-.4-.06-.71-.48-.69-.94.02-.45.37-.77.77-.71Zm1.64,27.92c-1.16-1.19-1.75-1.78-2.91-2.97.43-8.64.64-12.96,1.07-21.6.01,0,.02,0,.03,0,1.23.19,2.29-.79,2.36-2.18.07-1.39-.88-2.68-2.11-2.87.04-.84.06-1.26.1-2.1,2.26.35,3.99,2.7,3.86,5.25-.09,1.91-1.21,3.4-2.71,3.87,5.08.78,7.62,1.18,12.7,1.96-.65,1.2-.97,1.8-1.62,3-5.02-.77-7.53-1.16-12.54-1.94.75.79,1.13,1.18,1.88,1.97-.05,7.04-.07,10.56-.12,17.59Zm-20.04,22.92c-1.31-.98-1.96-1.52-3.26-2.63,0,0,0,0-.01,0-.45-.41-.8-1-.97-1.61-2.74-8.98-4.1-13.53-6.84-22.34,2.22,3.31,3.33,5.07,5.55,8.48-1.09-.03-1.64-.05-2.73-.08.39.4.58.6.97,1,0,0,0,0,0,0,1.5,4.53,2.25,6.8,3.76,11.32.35,1.13,1,2.18,1.84,2.91,0,0,0,0,.01,0,0,0,0,0,.01,0,1.89,1.42,2.83,2.07,4.74,3.12-1.23.02-1.85-.02-3.07-.17Z"/>
          <path class="cls-2" d="m93.71,160.77c-.12-.42-.19-.64-.31-1.06,2.39.43,3.79.61,5.87.92-.21-.6-.41-1.2-.61-1.81-1.58-.23-3.1-.46-5.2-.83-.5-.09-.99.09-1.29.49-.3.4-.38.99-.21,1.56.75,2.07,1.12,3.09,1.87,5.08.2.67.73,1.16,1.34,1.26,2.74.42,4.36.67,6.71,1.04-.77-1.9-1.53-3.8-2.22-5.72-2.28-.35-3.55-.54-5.94-.92Z"/>
          <g>
            <g>
              <path class="cls-10" d="m97.3,195.94c.08-1.55.11-2.32.19-3.87.02-.48-.25-.94-.67-1.12-1.89-.8-3.48-1.17-4.44-1.44-.07-.02-.13-.03-.2-.03.9,1.27,1.35,1.86,2.24,3.05-.1,2.07-.15,3.11-.26,5.18-.04.78.4,1.55,1.08,1.87,1.44.69,3.18,1.4,5.12,2.01.1-1.05.15-1.57.24-2.62-.86-.31-1.64-.67-2.31-1.06-.64-.38-1.03-1.16-1-1.97Z"/>
              <g>
                <path class="cls-10" d="m95.25,176.45c-.02.32.1.64.32.87.26.27.53.54.79.81-.37-.6-.74-1.19-1.1-1.79,0,.04,0,.07,0,.11Z"/>
                <path class="cls-10" d="m111.56,200.43c0,1.13-.01,1.7-.03,2.83,1.85-.07,3.73-.34,5.58-.86.16-.05.3-.15.4-.28-1.7-.89-2.54-1.32-4.24-2.2-.42.24-1.01.41-1.72.51Z"/>
                <path class="cls-10" d="m120.16,197.94c-4.26-4.35-8.52-8.69-12.78-13.04.21,1.58.29,3.17.23,4.78,3.28,3.37,6.56,6.74,9.85,10.11.2.21.31.5.29.79-.02.43-.04.64-.06,1.06-.01.18-.07.35-.17.48,1.27.66,1.9.99,3.17,1.66.06-.2.1-.42.11-.65.06-1.23.09-1.84.15-3.06.04-.8-.26-1.6-.8-2.13Z"/>
                <path class="cls-12" d="m107.38,184.91c-2.57-2.62-5.14-5.24-7.71-7.87,0,0,.02,0,.03-.01-1.76-.59-2.64-.89-4.4-1.48-.02.32-.03.5-.05.79.37.6.73,1.19,1.1,1.79,3.75,3.85,7.5,7.7,11.25,11.55.06-1.6-.02-3.19-.23-4.78Z"/>
              </g>
            </g>
            <g>
              <g>
                <path class="cls-10" d="m92.17,173.77c-.01.26-.02.39-.03.64,1.02.44,1.64.64,2.51.92-.62-1.02-1.22-2.05-1.8-3.08-.38.37-.64.88-.67,1.52Z"/>
                <path class="cls-10" d="m103.24,170.72s-.03,0-.04,0c.01.03.02.06.04.09,0-.03,0-.06,0-.09Z"/>
                <path class="cls-12" d="m95.33,175.07c.02-.41.28-.74.64-.84,2.36-.61,4.72-.81,7.01-.74.1-1.08.15-1.64.25-2.69-.01-.03-.02-.06-.04-.09-3.15-.17-6.43.15-9.62,1.08-.29.08-.52.25-.74.45.58,1.04,1.18,2.06,1.8,3.08.2.07.42.14.66.22.01-.19.02-.29.03-.48Z"/>
              </g>
              <path class="cls-10" d="m120.75,175.83c-1.94-1.09-5.13-2.55-8.96-3.64,0,1.15-.01,1.72-.02,2.87,2.25.71,4.28,1.57,5.96,2.4.67.33,1.1,1.09,1.06,1.86-.04.73-.05,1.1-.09,1.84-1.02,1.03-1.53,1.54-2.54,2.57.08.05.17.09.26.11,1.18.29,2.88.58,4.54.5.46-.02.81-.4.84-.9.1-2.04.15-3.06.25-5.1.05-1.04-.47-2.04-1.29-2.51Z"/>
            </g>
          </g>
        </g>
        <g>
          <path class="cls-12" d="m82.4,237.27c-.19.77-.28,1.15-.47,1.92-1.26-.55-1.89-.84-3.16-1.43,1.23-4.87,1.83-7.33,3.05-12.21-2.41-1.1-3.62-1.7-6.08-2.76.2.88.3,1.32.49,2.2-1.12,4.39-1.68,6.58-2.83,10.87-.58.52-.87.77-1.45,1.28,4.57,2.14,7.08,3.5,10.78,5.02v-4.68c-.11-.07-.21-.14-.33-.21Z"/>
          <path class="cls-10" d="m82.72,242.16c.72.3,1.48.6,2.31.91.75.29,1.53-.17,1.73-.99.18-.75.27-1.12.46-1.87-1.81-1.01-2.78-1.62-4.5-2.74v4.68Z"/>
          <path class="cls-10" d="m120.27,234.67c-2.09-.31-3.13-.45-5.2-.81-1.26,5.15-1.88,7.7-3.1,12.7-.05.19-.22.32-.4.28-1.02-.22-1.53-.33-2.54-.56-.17-.04-.27-.23-.23-.42,1.22-4.96,1.83-7.49,3.08-12.59-2.43-.48-3.64-.75-6.06-1.28.19.83.28,1.25.47,2.09-1.17,4.77-1.75,7.14-2.89,11.82-.21.84.24,1.66,1,1.85,4.22,1.04,6.32,1.63,10.62,2.34.77.13,1.57-.47,1.78-1.33,1.18-4.8,1.78-7.25,2.98-12.16.57-.72.86-1.08,1.43-1.79-.38-.06-.57-.08-.95-.14Z"/>
          <path class="cls-10" d="m95.34,234.68c.18-.73.27-1.1.45-1.83.05-.19.23-.32.4-.29,1.09.2,1.64.3,2.72.52.17.03.27.22.23.41-.16.64-.24.97-.39,1.61,2.14.03,3.2.06,5.32.12.33-1.37.5-2.05.84-3.42-4.85-1.06-7.29-1.4-12.18-2.37-.77-.15-1.56.36-1.76,1.19-.43,1.75-.65,2.62-1.08,4.36-.07.28.02.57.23.74,2.82,2.45,4.27,3.34,7.11,5.57-.18.73-.27,1.09-.45,1.82-.05.19-.22.32-.4.28-1.09-.21-1.64-.31-2.73-.48-.17-.03-.28-.21-.23-.4.16-.67.25-1.01.41-1.69-2.16.06-3.22.02-5.33-.23-.33,1.36-.5,2.03-.83,3.39,4.8,1.54,7.31,1.56,12.14,2.66.76.17,1.54-.36,1.75-1.19.43-1.76.65-2.64,1.08-4.42.07-.28-.02-.57-.23-.73-2.81-2.33-4.22-3.48-7.07-5.64Z"/>
          <path class="cls-1" d="m126.34,240.44c.19-.76.28-1.14.46-1.9.05-.2.23-.34.41-.32,1.11.13,1.67.19,2.78.3.18.02.28.19.23.39-.16.67-.24,1-.41,1.67.69-.07,1.26-.12,1.8-.18-.49-1.5-1.05-2.98-1.65-4.44-1.88-.19-3.76-.44-6.26-.79-.78-.11-1.59.51-1.8,1.39-.45,1.85-.68,2.77-1.13,4.61-.07.29.02.58.24.72,2.88,2.11,4.33,3.16,7.24,5.14-.18.76-.28,1.14-.46,1.89-.05.2-.23.34-.41.32-1.12-.12-1.67-.18-2.79-.32-.18-.02-.28-.2-.23-.39.17-.69.25-1.04.42-1.73-2.19.15-3.28.2-5.46.29-.35,1.42-.52,2.13-.87,3.54,4.94.74,7.45,1.13,12.45,1.48.79.06,1.6-.62,1.81-1.5.32-1.34.53-2.2.79-3.28-.18-.82-.37-1.64-.58-2.45-2.48-1.56-3.94-2.56-6.6-4.44Z"/>
          <path class="cls-4" d="m135.31,239.92c.34-1.42.51-2.12.85-3.53-2.47-.11-4.33-.24-6.18-.43.61,1.46,1.16,2.94,1.65,4.44,1.18-.13,2.17-.26,3.68-.48Z"/>
          <path class="cls-4" d="m133.6,245.29c-.24-.15-.45-.28-.67-.42.21.81.4,1.63.58,2.45.1-.41.2-.84.33-1.35.07-.29-.02-.56-.24-.69Z"/>
        </g>
      </g>
    </g>
    <path class="cls-16" d="m70.45,109.05c2.02-2.95,3.42-6.32,4.37-9.81.96-3.49,1.5-7.1,1.69-10.74.38-7.3-.63-14.65-2.2-21.85h0s1.76.25,1.76.25c-1.44,2.41-3.39,4.48-5.67,6.05h0s-2.14,1.61-2.14,1.61l1.2-2.4c1.89-3.77,2.15-8.15,1.85-12.4-.3-4.28-1.16-8.57-1.33-13.03-.09-2.22.03-4.5.48-6.72.44-2.22,1.17-4.39,2.16-6.43,2.01-4.08,5-7.6,8.45-10.47h0s.48,2.17.48,2.17c-.82-.26-1.55-.54-2.29-.83l-2.2-.88c-1.45-.59-2.91-1.19-4.35-1.73h0s-2.65-.94-2.65-.94l2.74-.42c3.6-.56,7.19-1.42,10.49-2.88.82-.37,1.62-.77,2.37-1.24.74-.46,1.5-1.01,2.27-1.54,1.56-1.04,3.17-2.01,4.83-2.89,3.32-1.76,6.89-3.12,10.62-3.83,1.87-.34,3.78-.51,5.68-.46.96,0,1.91.11,2.86.22,1,.14,1.88.4,2.71.49h0s-.63,1.41-.63,1.41l-8.12-6.66h0s-3.75-3.09-3.75-3.09l4.72,1.24c9.03,2.37,18.36,3.72,27.56,5.95,2.32.56,4.6,1.22,6.85,1.93,2.26.73,4.49,1.44,6.74,2.34,2.23.91,4.42,2.04,6.36,3.56.97.76,1.87,1.6,2.7,2.51.42.45.79.93,1.16,1.41.39.47.73.97,1.07,1.47,2.75,4.01,4.47,8.58,5.65,13.19,1.19,4.62,1.86,9.32,2.53,13.97.68,4.64,1.42,9.27,2.7,13.73,1.27,4.45,3.13,8.75,5.96,12.37h0s1.42,1.95,1.42,1.95l-2.31-.78c-2.67-.91-5.52-1.11-8.18-.65h0s1.35-1.21,1.35-1.21c-.76,3.63.59,7.61,2.72,10.97,2.16,3.41,5.16,6.39,7.86,9.74.66.83,1.37,1.73,1.93,2.67.6.93,1.11,1.89,1.6,2.86.96,1.94,1.77,3.95,2.45,5.99,1.33,4.09,2.32,8.33,2.22,12.74l-1.68-.05c0-4.06-1.03-8.16-2.4-12.05-1.43-3.88-3.2-7.68-5.87-10.72-2.68-3.15-5.82-6.07-8.32-9.74-1.24-1.84-2.28-3.85-2.95-6.04-.67-2.18-.94-4.58-.52-6.94l.22-1.22h1.14s0,0,0,0c3.2,0,6.32.8,9.03,2.26l-.9,1.16h0c-3-3.81-4.96-8.3-6.3-12.86-1.34-4.58-2.11-9.27-2.82-13.93-.7-4.65-1.39-9.28-2.58-13.77-1.18-4.48-2.85-8.84-5.46-12.59-1.31-1.88-2.78-3.6-4.57-4.95-1.78-1.38-3.8-2.42-5.93-3.27-2.12-.84-4.38-1.55-6.6-2.25-2.23-.69-4.48-1.33-6.73-1.86-9.1-2.15-18.44-3.44-27.64-5.8l.97-1.85h0s7.77,7.06,7.77,7.06l1.95,1.77-2.58-.36h0c-1-.12-1.9-.4-2.74-.51-.89-.1-1.78-.21-2.67-.22-1.79-.05-3.59.1-5.36.41-3.54.66-6.98,1.94-10.2,3.63-1.61.84-3.18,1.78-4.71,2.78-.75.51-1.49,1.04-2.33,1.56-.82.51-1.68.93-2.54,1.32-3.49,1.53-7.17,2.38-10.87,2.94l.1-1.36h0c1.56.38,3.06.81,4.57,1.23l2.26.61c.75.19,1.51.39,2.21.52l2.47.47-1.98,1.7h0c-3.29,2.62-6.13,5.82-8.07,9.53-1.94,3.72-2.82,7.88-2.71,12.13.05,4.26.81,8.57,1.02,12.99.21,4.38-.15,9.03-2.29,13.07l-.94-.8h0c2-1.63,3.63-3.68,4.75-5.95l1.15-2.33.61,2.58h0c1.61,7.29,2.79,14.77,2.56,22.36-.12,3.78-.61,7.57-1.56,11.27-.95,3.7-2.35,7.28-4.14,10.72l-2.58-1.54Z"/>
    <path class="cls-16" d="m118.77,39.75c.11.03.13-.11.16,0l.14.33c.1.22.21.44.32.66.22.44.46.88.7,1.32.48.87.99,1.74,1.5,2.59h0s-1.43-.42-1.43-.42l14.16-8.41h0s.36-.2.36-.2l.33.07,10.52,2.35h0s-.39.89-.39.89l-9.94-7.75.53.05c-5.63,2.88-11.27,5.7-16.96,8.53Zm-.9-.43c5.77-3.01,11.59-6.03,17.41-8.99l.28-.14.25.2,9.94,7.75,1.5,1.17-1.89-.28h0s-10.7-1.36-10.7-1.36l.68-.13h0s-14.14,8.44-14.14,8.44l-.95.57-.48-.98h0c-.38-.96-.73-1.91-1.07-2.88-.17-.48-.33-.97-.48-1.47-.08-.25-.15-.5-.21-.75l-.09-.39c-.05-.13-.09-.52-.04-.73Z"/>
    <path class="cls-16" d="m107.25,39.56c.09,1.88.25,3.95.29,6.1l.03,1.28-1.28-.34-16.39-4.38.4-.08-8.89,6.05-2.12,1.44,1.76-1.87,9.95-10.6.17-.19.26.04c5.28.8,10.58,1.66,15.81,2.54Zm-.78.63c-5.1-.7-10.13-1.41-15.18-2.18l.43-.15-10.26,10.29-.37-.42,8.63-6.41.17-.13.23.05,16.63,3.37-1.25.93c.27-1.66.65-3.41.97-5.35Z"/>
    <path class="cls-16" d="m81.32,107.34c-4.72,2.38-9.74,3.73-14.41,5.58-2.34.91-4.48,1.98-6.06,3.61-1.63,1.64-2.92,3.84-4.36,6l-8.55,12.92-8.64,12.86-8.64,12.86c-.17.26-.38.56-.49.75-.12.21-.14.26-.16.39-.06.26.07.86.23,1.44.29,1.15.69,2.28,1.25,3.35.54,1.08,1.21,2.12,1.96,3.09.77.97,1.63,1.88,2.55,2.73,1.84,1.71,3.99,3.11,6.25,4.27,2.27,1.15,4.63,2.12,7.08,2.8,4.86,1.41,10.05,1.72,14.85.6l.46,2.97c-5.43.41-10.78-.41-15.76-2.09-2.49-.84-4.91-1.87-7.22-3.1-2.33-1.21-4.55-2.62-6.66-4.24-2.08-1.64-4-3.58-5.46-5.93-.73-1.17-1.3-2.45-1.69-3.79-.18-.66-.44-1.32-.37-2.36.03-.51.26-1.08.47-1.42.22-.37.38-.6.56-.88l8.43-13,8.43-13,8.51-12.94c1.44-2.11,2.78-4.41,4.82-6.45,2.06-2.08,4.7-3.31,7.16-4.24,4.96-1.9,10-3.01,15.03-4.08l.48,1.31Z"/>
    <path class="cls-16" d="m78.87,102.14c-.06,1.09.75,2.02,1.46,2.97.75.98,1.32,2.13,1.63,3.34.63,2.43.44,4.96-.11,7.35-.57,2.39-1.5,4.62-2.28,6.86-.8,2.23-1.41,4.47-1.62,6.79-.44,4.64.48,9.34,2.01,13.78,1.55,4.45,3.72,8.7,5.88,12.96h0s0,.02,0,.02l-1.01.39c-1.24-3.75-1.5-7.86-.75-11.8.37-1.97.96-3.9,1.81-5.72.83-1.85,1.92-3.51,2.97-5.12,2.13-3.22,4.19-6.4,5.87-9.8,1.67-3.4,2.92-7.01,3.81-10.74l.6.1c-.44,3.86-1.43,7.69-2.97,11.29-1.49,3.63-3.52,7.01-5.58,10.25-1.02,1.63-2,3.23-2.77,4.9-.77,1.68-1.35,3.44-1.75,5.25-.81,3.61-.86,7.4-.18,11.11l.67,3.66-1.68-3.26h0s0-.02,0-.02c-2.28-4.19-4.59-8.44-6.22-13.01-1.66-4.55-2.55-9.47-2.09-14.37.12-1.22.33-2.44.64-3.63.31-1.19.72-2.34,1.14-3.47.84-2.26,1.78-4.44,2.38-6.7.6-2.24.86-4.61.36-6.85-.24-1.12-.68-2.18-1.33-3.14-.32-.49-.69-.98-.98-1.55-.29-.55-.5-1.22-.42-1.89l.52.05Z"/>
    <path class="cls-16" d="m94.82,127.01c-.2,5.75-1.11,11.41-1.6,17.06-.5,5.63-.58,11.34.89,16.69l-1.96.13h0c.22-1.38.65-2.59,1.16-3.78.52-1.18,1.1-2.33,1.92-3.41l1.33-1.76v2.18c0,3.24.28,6.49.93,9.66.66,3.17,1.68,6.26,3.33,9.03,1.63,2.81,3.56,5.5,5.14,8.43,1.58,2.9,2.79,6.23,2.49,9.66h0s-.77-.19-.77-.19c3.32-7.71,6.65-15.47,8.45-23.62.93-4.06,1.38-8.21,1.34-12.33-.07-4.1-.78-8.46.46-12.84h0s.56-2.16.56-2.16l1.24,1.91c.3.46.71.96,1.11,1.45l1.27,1.48,1.29,1.51c.43.52.86,1.03,1.27,1.67h0s-1.84.63-1.84.63c-.1-1.35-.06-2.64.02-3.93.07-1.29.2-2.56.37-3.83.33-2.54.77-5.05,1.33-7.54.28-1.25.59-2.48.94-3.71.17-.61.36-1.23.56-1.84.22-.59.37-1.24.72-1.84.65-1.15,1.36-2.17,1.99-3.26.63-1.08,1.21-2.19,1.69-3.36l.28.09c-.63,2.49-2.03,4.73-3.1,6.94-.24.52-.36,1.12-.55,1.73-.16.6-.32,1.21-.46,1.82-.28,1.22-.53,2.45-.74,3.69-.43,2.47-.74,4.96-.95,7.46-.18,2.48-.35,5.02-.1,7.39l.4,3.94-2.25-3.31h0c-.3-.46-.71-.97-1.11-1.45l-1.27-1.48-1.29-1.51c-.43-.52-.86-1.03-1.27-1.67l1.8-.25h0c-1.19,3.78-.66,8-.67,12.26-.05,4.29-.62,8.55-1.67,12.67-2.04,8.27-5.59,15.99-9.08,23.63l-.87,1.9.09-2.09h0c.23-3.21-.95-6.32-2.54-9.13-1.58-2.83-3.55-5.47-5.27-8.32-1.77-2.86-2.9-6.09-3.62-9.34-.72-3.26-1.07-6.59-1.12-9.93l1.32.43c-.62.95-1.1,2.06-1.49,3.18-.38,1.12-.69,2.29-.78,3.38h0s-.8,5-.8,5l-1.16-4.86c-1.38-5.76-1.08-11.66-.4-17.33.68-5.7,1.76-11.29,2.14-16.95l.91.05Z"/>
    <path class="cls-16" d="m129.13,122.49c1.54,3.78,1.81,7.89,1.82,11.87.02,4-.34,7.98-.19,11.91.29,7.87,2.11,15.65,5.33,22.79h0s-1.89.17-1.89.17c1.11-4.71,3.88-8.64,6.51-12.31,1.32-1.85,2.66-3.66,3.82-5.56,1.17-1.9,2.26-3.85,3.19-5.88,1.89-4.04,3.3-8.31,4.2-12.68.44-2.19.77-4.4.96-6.62.18-2.22.23-4.46.17-6.69l-.08-2.66,1.81,1.94c2.58,2.77,5.91,4.84,9.53,5.93h.02s-1.22,1.32-1.22,1.32c-.98-2.78-.98-5.68-.76-8.41.23-2.74.67-5.4.75-8.05.11-2.64-.32-5.26-1.07-7.83-.75-2.57-1.77-5.06-2.81-7.56l.56-.25c1.14,2.45,2.28,4.92,3.16,7.52.88,2.59,1.46,5.35,1.46,8.13.03,2.77-.31,5.48-.41,8.14-.11,2.65.04,5.28.98,7.6l.78,1.95-2.01-.63h-.02c-3.97-1.2-7.6-3.46-10.42-6.49l1.73-.72c.07,2.31,0,4.62-.18,6.93-.2,2.3-.54,4.59-1,6.86-.94,4.52-2.39,8.94-4.35,13.13-.96,2.1-2.1,4.12-3.3,6.09-1.21,1.98-2.58,3.83-3.89,5.67-2.63,3.66-5.2,7.38-6.18,11.6l-.72,3.09-1.17-2.92h0c-3.11-7.47-4.74-15.52-4.8-23.56-.03-4.04.43-8,.53-11.95.1-3.93-.05-7.95-1.43-11.62l.58-.23Z"/>
    <path class="cls-16" d="m29.28,166.5c-2.6,2.02-4.78,4.56-6.63,7.33-1.86,2.77-3.39,5.78-4.83,8.84-2.89,6.12-5.38,12.63-9.5,18.37l-1.17-1.76c1.38-.32,2.72-.9,3.91-1.67l3.08-2.01-1.43,3.4c-1.36,3.23-2.24,6.82-2.33,10.31-.03,1.73.18,3.49.93,4.82.88,1.53,1.93,2.97,3.09,4.35,1.16,1.38,2.41,2.7,3.69,4.03l1.92,2c.66.72,1.27,1.46,1.82,2.22,2.22,3.05,4.03,6.29,5.61,9.66h0s-.8.24-.8.24c-.1-.86-.15-1.7-.16-2.56,0-.43,0-.87.05-1.31.05-.45.1-.9.27-1.39h0s.45-1.38.45-1.38l.83,1.24c2.79,4.17,6.71,7.49,10.85,10.43,4.15,2.96,8.56,5.6,12.7,8.68l-.57.77c-4.14-2.98-8.58-5.54-12.83-8.46-4.24-2.91-8.35-6.26-11.36-10.6l1.29-.14h0c-.28.59-.43,1.42-.53,2.21-.1.8-.14,1.63-.15,2.44l-.02,1.47-.78-1.23h0c-2.12-3.01-4.18-6.07-6.4-8.91-.55-.71-1.13-1.38-1.73-2.01l-1.93-1.97c-1.29-1.32-2.59-2.66-3.81-4.1-1.23-1.43-2.37-2.97-3.34-4.63-1.07-1.91-1.25-3.96-1.25-5.9.02-1.95.3-3.85.71-5.71.42-1.86.97-3.68,1.72-5.46l1.65,1.38c-1.41.94-2.98,1.62-4.64,2.01l-2.94.68,1.76-2.44c3.9-5.41,6.38-11.78,9.31-18,1.48-3.11,3.11-6.19,5.09-9.08,1.98-2.88,4.33-5.58,7.17-7.73l1.22,1.59Z"/>
    <path class="cls-6" d="m13.5,219.17c-3.77,1.79-7.75,3.14-11.84,4.01,7.32,10.72,16.1,20.9,27.62,26.9,6.17,3.21,15.76,2.29,22.46,4.18"/>
    <path class="cls-16" d="m41.78,190.95c2.48.35,4.86,1.35,6.86,2.87,1,.75,1.91,1.65,2.69,2.64.78.98,1.43,2.03,2.04,3.07,1.2,2.09,2.4,4.05,3.89,5.85,1.47,1.8,3.12,3.45,4.92,4.92h0s1.18.98,1.18.98l-1.36.69c-1.36.68-2.97.69-4.34.03l1.36-1.3c2.02,4.56,4.88,8.77,8.37,12.32l-1.42,1.4c-3.67-3.74-6.65-8.13-8.78-12.92l-1.14-2.56,2.5,1.26c.77.39,1.78.38,2.54-.01l-.19,1.66h0c-1.87-1.6-3.57-3.38-5.07-5.32-1.51-1.92-2.76-4.09-3.89-6.16-1.14-2.07-2.4-3.97-4.2-5.37-1.77-1.41-3.91-2.38-6.15-2.75l.19-1.28Z"/>
    <path class="cls-6" d="m62.88,182.58c-2.71,6.59-6.02,11.34-11.72,15.6"/>
    <path class="cls-16" d="m66.72,126.99c-3.07,7.68-3.56,16.35-1.33,24.29.55,1.99,1.24,3.95,1.99,5.88.38.97.77,1.93,1.17,2.89.38.94.91,2.03.81,3.32-.1,1.25-.64,2.22-.96,3.18-.35.97-.71,1.93-.99,2.93-.62,1.96-1.03,3.99-1.4,6.02-.64,4.08-.82,8.22-.64,12.36.21,4.13.75,8.25,1.54,12.33.41,2.04.86,4.05,1.36,6.08.5,2.03,1,4.12,1.2,6.29.42,4.41-.72,8.67-1.78,12.69l-1.93-.52c1.11-4.01,2.19-8.02,1.85-12.01-.16-2-.62-4-1.09-6.04-.49-2.04-.92-4.11-1.32-6.18-.76-4.15-1.27-8.35-1.44-12.58-.15-4.23.08-8.48.79-12.67.4-2.08.84-4.16,1.5-6.19.29-1.02.68-2.01,1.05-3.01.36-1.01.84-1.93.9-2.79.09-.84-.29-1.74-.69-2.71-.39-.97-.78-1.95-1.15-2.94-.74-1.97-1.43-3.97-1.97-6.03-2.21-8.22-1.61-17.12,1.62-24.96l.88.36Z"/>
    <path class="cls-16" d="m60.08,146.86c.14,7.23,3.04,14.28,7.87,19.42l-1.5,1.32c-4.79-5.84-7.26-13.38-6.91-20.74h.54Z"/>
    <path class="cls-16" d="m55.85,236.29c-.06-.26-.08-.56-.06-.83.01-.17.03-.2.04-.26l.03-.17.13-.7.28-1.4c.2-.94.42-1.88.74-2.8.61-1.84,1.66-3.59,3.24-4.82.79-.6,1.74-1.04,2.74-1.2,1-.17,2.02-.08,2.98.18,1.92.52,3.58,1.75,4.83,3.21,1.26,1.47,2.22,3.13,3.13,4.76.91,1.64,1.76,3.33,2.47,5.09,1.44,3.49,2.38,7.37,1.9,11.34v.02s-.05.45-.05.45l-.41.24-3.05,1.79c-.51.29-.97.62-1.67.91-.35.13-.76.25-1.22.21-.46-.03-.89-.23-1.21-.46-.64-.48-.95-.98-1.34-1.42l-1.13-1.36c-.75-.91-1.51-1.81-2.27-2.7l-4.59-5.39c-.76-.92-1.49-1.83-2.32-2.59-.41-.38-.85-.72-1.32-1-.23-.14-.48-.26-.72-.38l-.18-.08c-.06-.03-.1-.04-.26-.12-.26-.13-.51-.3-.73-.49Zm1.74-.98s.04-.08.05-.07c-.02-.01.06.05.12.1l.19.15c.26.2.5.4.74.62.48.42.92.87,1.33,1.33.82.92,1.53,1.88,2.28,2.76l4.64,5.31c.77.89,1.55,1.77,2.35,2.64l1.18,1.31c.4.44.78.91,1.11,1.12.33.2.5.2.92.02.38-.18.87-.56,1.36-.88l2.9-2.01-.45.68h0c.68-3.45.06-7.13-1.22-10.53-.63-1.71-1.4-3.39-2.24-5.03-.83-1.65-1.71-3.26-2.88-4.63-1.15-1.37-2.6-2.46-4.29-2.94-1.67-.5-3.5-.25-4.88.81-1.4,1.04-2.32,2.67-2.75,4.38-.21.87-.33,1.76-.38,2.67-.03.45-.02.91-.02,1.37v.69s.01.17.01.17c0,.06,0,.14.01.09,0-.04-.04-.11-.11-.13Z"/>
    <path class="cls-16" d="m57.64,237.25c-1.42,1.22-2.59,2.51-3.59,3.95-.49.72-.95,1.45-1.31,2.21-.19.38-.32.76-.43,1.15-.11.42-.2.83-.28,1.26-.31,1.69-.36,3.42-.01,5.07.33,1.65,1.11,3.17,2.3,4.33,1.2,1.16,2.73,2,4.28,2.86,1.55.86,3.1,1.72,4.66,2.54,3.13,1.63,6.33,3.1,9.65,4.1h.01s-1.24.57-1.24.57l1.7-3.68c.27-.61.6-1.24.8-1.79.21-.57.26-1.02.11-1.59-.14-.56-.42-1.2-.68-1.8-.27-.6-.56-1.2-.87-1.78-.63-1.17-1.36-2.29-2.17-3.35l.42-.35c.93,1,1.78,2.08,2.54,3.23.38.57.74,1.16,1.07,1.77.33.61.66,1.19.92,1.92.28.71.28,1.67.07,2.39-.2.74-.45,1.34-.67,1.98l-1.37,3.82-.33.91-.92-.34h-.01c-3.41-1.27-6.63-2.91-9.73-4.68-1.56-.87-3.09-1.78-4.62-2.68-1.52-.9-3.13-1.82-4.46-3.17-1.35-1.34-2.24-3.13-2.58-4.96-.36-1.84-.29-3.71.06-5.51.09-.45.19-.9.31-1.34.14-.46.31-.92.51-1.33.41-.84.9-1.61,1.42-2.35,1.03-1.48,2.15-2.9,2.86-4.53l1.61,1.19Z"/>
    <path class="cls-16" d="m53.13,253.88c-1.53,2.17-2.54,4.75-2.36,7.29.08,1.26.49,2.49,1.12,3.57.65,1.08,1.6,2.05,2.6,2.94,2.02,1.76,4.46,3.05,7.04,3.94,2.59.89,5.31,1.43,8.07,1.72h0s-1.08.75-1.08.75c.55-1.73.67-3.64.44-5.52-.23-1.88-.81-3.75-1.79-5.43l.47-.32c1.22,1.62,2.08,3.51,2.57,5.51.49,2,.63,4.12.24,6.24l-.16.84-.92-.09h0c-2.87-.31-5.74-.86-8.52-1.82-2.77-.95-5.44-2.35-7.69-4.32-1.11-.99-2.18-2.05-3-3.41-.8-1.36-1.31-2.89-1.41-4.46-.22-3.17,1.01-6.16,2.72-8.58l1.64,1.15Z"/>
    <path class="cls-16" d="m167.05,182.95c-3.79-5.29-7.3-10.91-9.43-17.13-1.07-3.1-1.77-6.33-2.01-9.59-.25-3.26-.05-6.55.53-9.75l.35.06c-.48,3.19-.59,6.44-.25,9.64.34,3.2,1.12,6.34,2.25,9.34,2.27,6.02,5.87,11.43,9.77,16.56l-1.21.89Z"/>
    <path class="cls-16" d="m166.34,186.06c-.33-.2-.66-.41-.98-.62-.28-.23-.52-.48-.78-.71-.52-.48-.9-1.01-1.35-1.52-.82-1.05-1.57-2.12-2.28-3.22-1.42-2.19-2.65-4.49-3.87-6.78-1.21-2.3-2.35-4.63-3.39-7-1.03-2.38-2.03-4.77-2.81-7.27l.75-.23c.76,2.44,1.76,4.81,2.84,7.14,1.08,2.33,2.26,4.62,3.5,6.87,1.24,2.25,2.59,4.44,4.05,6.54.74,1.04,1.51,2.05,2.32,3.01.43.44.84.93,1.3,1.3.23.18.45.39.68.56.23.12.46.25.68.38l-.67,1.55Z"/>
    <path class="cls-16" d="m163.33,107.79c7.35,1.01,14.26,3.94,20.52,7.76,3.13,1.92,6.12,4.09,8.91,6.51,1.4,1.2,2.72,2.51,4,3.85l1.81,2.09c.59.71,1.15,1.44,1.72,2.16,4.44,5.89,7.82,12.46,10.72,19.16,2.93,6.7,5.24,13.62,7.58,20.51h0v1.14l-.27.36c-4.92,6.67-11.22,12.22-18.23,16.49-7.02,4.27-14.75,7.3-22.75,9.04l-.87.19-.53-.68h0c-1.72-2.22-3.42-4.52-4.87-7-1.46-2.48-2.65-5.11-3.57-7.82h0s2.03.06,2.03.06c-.91,2.3-1.69,4.59-2.24,6.96-.54,2.37-.98,4.86-1.53,7.32l-2.91-.72c.67-2.39,1.23-4.8,1.93-7.26.71-2.47,1.68-4.87,2.74-7.17l1.08-2.34.95,2.4h0c.97,2.54,2.18,4.98,3.64,7.26,1.45,2.29,3.15,4.42,4.93,6.55h0s-1.4-.49-1.4-.49c7.67-1.79,15.06-4.81,21.7-8.99,6.64-4.17,12.53-9.53,17.06-15.87l-.27,1.51h0c-1.61-7.02-3.7-13.91-6.36-20.56-2.7-6.63-6.24-12.91-10.58-18.53-2.17-2.82-4.52-5.46-7.14-7.84-2.62-2.38-5.47-4.53-8.46-6.45-2.99-1.92-6.15-3.59-9.43-4.97-3.27-1.38-6.67-2.49-10.16-3.1l.23-1.56Z"/>
    <path class="cls-16" d="m142.66,239.75c-.85,2.33-1.4,4.71-1.1,7.06.08.58.17,1.16.33,1.73.12.55.34.95.67,1.35.32.39.74.71,1.21.96.48.24,1.1.48,1.64.73,4.52,1.86,9.48,2.58,14.34,2.19,2.43-.19,4.84-.66,7.16-1.41,2.33-.74,4.49-1.81,6.69-3.03,4.4-2.41,8.77-4.92,13.12-7.42l.41-.23.44.16,13.27,4.7c4.3,1.3,9,1.08,13.66.82,4.65-.27,9.29-.79,13.57-2.32,4.25-1.52,8.21-4.11,10.65-7.82l.59,1.59c-4-1.14-7.71-3.25-10.75-6.08-.76-.71-1.47-1.47-2.15-2.26-.33-.42-.65-.73-1.02-1.34-.17-.3-.35-.69-.38-1.16-.03-.47.09-.9.22-1.21.3-.65.53-.96.75-1.4.22-.42.43-.84.62-1.28.38-.87.71-1.76.97-2.67,1.06-3.66,1.16-7.59.67-11.43-.5-3.85-1.54-7.65-2.92-11.31l-.31-.82.75-.45c1.35-.82,2.92-1.26,4.5-1.25l-.86,1.65c-2.83-4.06-5.43-8.3-7.71-12.7-2.28-4.4-4.24-8.97-5.95-13.61l1.88-.69c1.69,4.57,3.64,9.04,5.89,13.36,2.25,4.31,4.81,8.46,7.61,12.44l1.16,1.66h-2.03c-1.19,0-2.38.33-3.39.95l.44-1.28c1.44,3.79,2.56,7.73,3.07,11.79.51,4.05.41,8.27-.75,12.29-.29,1-.65,1.99-1.07,2.94-.21.48-.45.95-.69,1.41-.24.45-.56.97-.67,1.23-.09.3-.1.18.03.48.14.26.52.68.8,1.03.62.73,1.27,1.42,1.97,2.07,2.79,2.61,6.21,4.56,9.88,5.6l1.38.39-.79,1.19c-2.79,4.2-7.15,6.99-11.71,8.62-4.6,1.64-9.44,2.15-14.16,2.43-4.69.24-9.59.51-14.37-.93l-13.34-4.74.84-.08c-4.37,2.51-8.74,5.01-13.18,7.43-2.19,1.22-4.57,2.4-7.04,3.17-2.47.8-5.04,1.29-7.62,1.49-5.17.37-10.45-.43-15.21-2.51-.6-.29-1.15-.51-1.79-.86-.63-.36-1.22-.83-1.69-1.42-.47-.58-.82-1.34-.95-2.03-.16-.65-.26-1.31-.32-1.98-.24-2.7.52-5.34,1.48-7.68l1.23.46Z"/>
    <path class="cls-5" d="m183.02,195.78l-.96-1.1c2.01,2.66,4.29,5.11,6.79,7.3"/>
    <path class="cls-16" d="m210.34,194.15c-2.73-1.14-5.82-1.25-8.7-.64-2.91.6-5.6,2.01-7.93,3.87-2.35,1.87-4.3,4.14-6.04,6.65-.89,1.25-1.98,2.58-3.38,3.48-1.37.94-3.06,1.49-4.72,1.45l-.06-1.26c1.42-.17,2.72-.71,3.89-1.51,1.17-.81,2.11-1.87,3.01-3.1,1.79-2.51,3.91-4.93,6.42-6.85,2.49-1.93,5.41-3.42,8.56-4.02,3.12-.61,6.46-.36,9.38.96l-.42.96Z"/>
    <path class="cls-16" d="m185.54,210.71c-1.13.32-2.37.23-3.44-.19-1.08-.4-2.02-1.04-2.86-1.78-1.69-1.53-2.73-3.45-3.95-5.11-.6-.84-1.24-1.61-1.98-2.26-.73-.64-1.57-1.18-2.48-1.65-1.8-.95-3.82-1.66-5.73-2.83-3.85-2.34-6.52-6.16-8.28-10.11-1.79-3.98-2.85-8.18-3.82-12.31h0s1.59.99,1.59.99c-1.47.43-2.9.99-4.26,1.67-.66.34-1.38.74-1.88,1.11-.25.19-.45.38-.59.56-.14.18-.22.34-.3.57-.34.88-.26,2.73-.25,4.26.02,1.58.12,3.15.33,4.71.39,3.11,1.24,6.14,2.55,9.01,1.29,2.87,3.04,5.56,4.97,8.12l-1.15.93c-2.12-2.51-4.1-5.19-5.64-8.16-1.56-2.96-2.68-6.19-3.28-9.49-.32-1.65-.52-3.32-.64-4.98-.07-.83-.1-1.66-.14-2.49-.02-.85-.06-1.83.3-2.92.18-.54.49-1.1.88-1.54.38-.44.81-.78,1.22-1.06.84-.55,1.58-.89,2.37-1.26,1.57-.72,3.22-1.25,4.9-1.59l1.33-.26.25,1.26h0c.83,4.12,1.74,8.19,3.29,11.98,1.54,3.77,3.84,7.27,7.21,9.46,1.66,1.11,3.63,1.87,5.53,2.95.95.53,1.89,1.17,2.72,1.95.83.78,1.51,1.67,2.11,2.57,1.21,1.78,2.18,3.66,3.61,5.03,1.41,1.37,3.36,2.37,5.21,1.89l.27.96Z"/>
    <path class="cls-16" d="m163.65,204.22c-2.36.13-4.68.64-6.86,1.48-1.09.43-2.15.92-3.16,1.5-1.02.58-2.04,1.24-3.17,1.78-1.14.56-2.38.87-3.53,1.16-1.15.29-2.29.6-3.4.97-1.11.36-2.19.79-3.22,1.29-1,.49-2.03,1.15-3.05,1.74-1.01.61-2,1.24-2.9,1.92-.45.34-.88.69-1.22,1.05-.35.35-.53.77-.49.79.11,1.13.28,2.31.47,3.47l.3,1.73c.1.55.23,1.17.36,1.57.02.03,0,.04.04.09l.1.18.21.34c.15.22.31.43.48.62.34.38.72.69,1.14.88.82.39,1.88.18,2.93-.25l6.54-2.91.32.66-6.35,3.42c-.56.27-1.17.53-1.85.67-.68.14-1.45.12-2.16-.13-.7-.24-1.3-.67-1.79-1.15-.25-.24-.47-.49-.68-.75-.1-.13-.2-.26-.3-.4-.09-.13-.19-.26-.31-.51-.31-.72-.44-1.27-.6-1.89-.16-.6-.28-1.2-.39-1.8-.21-1.2-.41-2.38-.53-3.64-.05-.57.15-1.09.35-1.44.21-.37.45-.65.69-.91.48-.51.99-.91,1.5-1.28,1.03-.74,2.09-1.34,3.15-1.93,1.07-.57,2.08-1.17,3.25-1.7,1.14-.51,2.31-.91,3.49-1.25,1.18-.34,2.36-.61,3.54-.86,1.18-.25,2.29-.48,3.32-.94,1.05-.45,2.07-1.05,3.15-1.61,1.09-.56,2.22-1.05,3.38-1.43,2.32-.76,4.76-1.17,7.19-1.18l.02.67Z"/>
    <path class="cls-16" d="m137.52,227.58c-.19,1.83-.18,3.79-.14,5.69.03,1.89.23,3.74,1.52,4.66.63.48,1.46.76,2.32.87.87.11,1.8.04,2.75-.05l2.9-.29c.95-.1,1.98-.18,2.82-.34l.29,1.12c-1.07.24-1.98.33-2.96.48l-2.89.4c-.97.13-2,.25-3.06.17-1.07-.09-2.16-.39-3.11-1.05-.98-.66-1.64-1.75-1.93-2.8-.32-1.05-.4-2.1-.46-3.08-.11-1.98-.18-3.92-.04-5.97l1.99.2Z"/>
    <path class="cls-16" d="m225.52,228.09c-4.38,2.32-8.38,5.38-11.43,9.28l-.58.75-.3-.9c-.4-1.21-.53-2.5-.38-3.76l.66.55c-2.72.84-5.28,2.19-7.52,3.95l-.89.7.05-1.13.13-3.09.71.51c-3.22,1.22-6.48,2.29-9.67,3.51-3.19,1.2-6.29,2.61-9.19,4.38l-.52-.85c2.95-1.83,6.11-3.29,9.33-4.52,3.22-1.23,6.49-2.28,9.68-3.49l.75-.28-.03.8-.13,3.09-.84-.43c2.34-1.83,5.02-3.23,7.86-4.1l.76-.23-.1.78c-.14,1.11-.02,2.26.33,3.32l-.88-.16c3.16-3.98,7.24-7.32,11.96-9.23l.27.58Z"/>
    <path class="cls-16" d="m69.28,273.53c8.26,5.62,17.17,10.35,26.7,13.06,9.51,2.8,19.55,3.24,29.34,1.87,9.81-1.38,19.4-4.29,29.06-7.11l1.82-.52.91-.26.23-.07.06-.02c-.05.01-.12.04-.17.06-.13.07-.16.09-.23.15-.18.18-.12.15-.11.11.12-.27.24-.9.3-1.45.07-.58.11-1.18.14-1.78.12-2.43.06-4.93-.04-7.41-.09-2.49-.24-4.98-.45-7.46-.2-2.48-.44-4.97-.83-7.4l2.03-.38c1.04,5.02,1.55,10.04,1.89,15.11.14,2.54.24,5.07.15,7.66-.02.65-.06,1.3-.13,1.98-.09.69-.13,1.32-.48,2.23-.12.24-.2.5-.61.9-.13.11-.22.19-.42.29-.09.04-.19.08-.28.11l-.06.02-.23.07-.9.26-1.81.52c-9.62,2.8-19.33,5.89-29.49,7.13-5.06.64-10.2.86-15.31.47-2.56-.16-5.09-.57-7.61-1.01-2.5-.52-5-1.09-7.43-1.88-9.79-3.01-18.72-8.15-26.82-14.16l.77-1.07Z"/>
    <path class="cls-16" d="m107.9,60.29c.87,6.94-2.45,13.9-7.97,14.59-5.53.69-10.71-4.37-11.58-11.31s2.9-13.13,8.43-13.83,10.26,3.61,11.13,10.55Z"/>
    <ellipse class="cls-11" cx="97.7" cy="61.59" rx="8.64" ry="10.9" transform="translate(-6.91 12.65) rotate(-7.15)"/>
    <ellipse class="cls-16" cx="97.66" cy="61.25" rx="5.2" ry="6.53" transform="translate(-6.87 12.64) rotate(-7.15)"/>
    <ellipse class="cls-11" cx="94.4" cy="59.45" rx="2.82" ry="3.33" transform="translate(-6.67 12.22) rotate(-7.15)"/>
    <path class="cls-16" d="m145.11,53.29c.92,7.36-2.49,14.73-8.21,15.44-5.72.72-11.11-4.67-12.03-12.03-.92-7.36,2.97-13.91,8.69-14.63,5.72-.72,10.64,3.86,11.56,11.22Z"/>
    <ellipse class="cls-11" cx="134.55" cy="54.63" rx="8.95" ry="11.56" transform="translate(-5.76 17.18) rotate(-7.15)"/>
    <ellipse class="cls-16" cx="134.51" cy="54.27" rx="5.39" ry="6.93" transform="translate(-5.71 17.17) rotate(-7.15)"/>
    <ellipse class="cls-11" cx="131.13" cy="52.35" rx="2.92" ry="3.53" transform="translate(-5.5 16.74) rotate(-7.15)"/>
    <polygon class="cls-16" points="40.5 243.86 38.43 247.31 41.61 244 40.5 243.86"/>
    <polygon class="cls-16" points="35.8 240.4 32.76 245.52 37.04 241.09 35.8 240.4"/>
    <path class="cls-16" d="m31.38,236.95c-.28.55-3.59,5.12-3.59,5.12l4.7-4.56-1.11-.55Z"/>
    <path class="cls-16" d="m25.16,234.18c-.41.55-4.29,5.12-4.29,5.12l4.98-4.01-.69-1.11Z"/>
    <path class="cls-16" d="m20.04,226.99c-.28.41-4.84,4.56-4.84,4.56l5.67-3.46-.83-1.11Z"/>
    <path class="cls-16" d="m15.89,222.84c-.55.41-5.94,4.42-5.94,4.42l7.47-3.18-1.52-1.24Z"/>
    <polygon class="cls-16" points="44.37 245.93 42.57 249.66 45.48 246.76 44.37 245.93"/>
    <path class="cls-16" d="m199.71,237.25c.75.6,8.04,6.51,8.04,6.51l-6.84-7.41-1.21.9Z"/>
    <path class="cls-16" d="m195.24,238.71c.75.6,6.14,4.48,6.14,4.48l-4.94-5.39-1.21.9Z"/>
    <path class="cls-16" d="m205.94,236.73s7.31,6.04,7.11,5.75-5.65-6.82-5.65-6.82l-1.46,1.07Z"/>
    <path class="cls-16" d="m213.73,236.64c.58.29,9.06,7.21,9.06,7.21l-7.6-8.87-1.46,1.66Z"/>
    <path class="cls-16" d="m216.75,233.62c.68,0,8.67,6.72,8.67,6.72l-6.92-8.18-1.75,1.46Z"/>
    <path class="cls-16" d="m220.94,230.6c.39.39,8.28,8.18,8.28,8.18l-6.92-9.35-1.36,1.17Z"/>
    <path class="cls-16" d="m138.67,80.05h0c.05-.07.1-.12.16-.17-.35.88-.68,1.67-.86,2.14.24-.65.47-1.31.7-1.97Z"/>
    <path class="cls-16" d="m139.09,79.68c.26-.16.67.05.64.37-.06.61-.49,1.1-.85,1.56-.37.47-.79.89-1.24,1.28.07-.17.13-.34.19-.51.03-.08.08-.19.13-.35.19-.47.51-1.26.86-2.14.08-.08.16-.14.26-.2Z"/>
    <path class="cls-16" d="m143.15,71.86s0,.11-.02.16c-.12.55-.26,1.11-.43,1.66-.59.25-1.18.47-1.72.72l-.47.21c.21-.61.44-1.21.71-1.79.62-.3,1.27-.66,1.92-.97Z"/>
    <path class="cls-16" d="m140.99,74.41c.54-.25,1.13-.47,1.72-.72-.5,1.71-1.17,3.41-1.73,5.07-.76,2.25-1.56,4.49-2.53,6.65-1.69,3.76-3.95,7.15-7.44,9.42-3.61,2.34-7.88,3.27-12.08,3.76-3.52.4-6.93.53-10.43-.02-1.58-.25-3.15-.56-4.67-1.03-.09-.03-.18-.05-.27-.09,0-.31-.02-.62-.05-.93,2.14.77,4.61.95,6.72,1.06,3.48.19,6.89,0,10.33-.54,4.01-.62,8.12-1.84,11.27-4.54,2.8-2.41,4.5-6.2,5.82-9.63.45-.39.87-.8,1.24-1.28.36-.46.79-.95.85-1.56.03-.32-.38-.52-.64-.37-.09.06-.18.12-.26.2.7-1.74,1.54-3.8,1.69-4.27-.08.09-.35.5-.68,1.02.23-.65.45-1.34.68-2.01l.47-.21Z"/>
    <path class="cls-16" d="m141.02,72.93c.07-.03.14-.06.21-.1-.26.58-.5,1.18-.71,1.79-1.5.68-3.01,1.35-4.53,2.01-6.45,2.81-13.02,5.01-19.98,6.21-3.39.58-6.81.97-10.25,1.15-1.99.1-4.13.27-6.21.13-.33-.51-.7-.99-1.09-1.44,1.1.09,2.22.08,3.34.07,1.9,0,3.8-.09,5.7-.22,6.76-.48,13.48-1.77,19.91-3.93,3.23-1.08,6.34-2.43,9.45-3.8,1.39-.61,2.78-1.24,4.16-1.88Z"/>
    <path class="cls-11" d="m140.53,74.62c-.23.68-.45,1.36-.68,2.01-.73,1.14-1.77,2.81-1.94,2.99-.38.42-1.07,1.45-1.49,1.82-.93.81-1.93,1.59-3.01,2.17-2.27,1.22-4.41,2.75-6.83,3.63-.52.19-.32.96.23.82,1.39-.34,2.72-.89,4.05-1.42,1.22-.48,2.43-1,3.58-1.62,1.11-.58,2.17-1.27,3.13-2.08.02-.02.05-.05.08-.07-1.32,3.42-3.02,7.22-5.82,9.63-3.14,2.7-7.25,3.92-11.27,4.54-3.44.54-6.86.72-10.33.54-2.11-.11-4.58-.29-6.72-1.06-.08-.99-.26-1.98-.41-2.92-.14-.83-.32-1.66-.54-2.48.15.05.3.1.47.13,1.23.26,2.51.29,3.76.23,1.07-.05,2.38-.02,3.3-.63.19-.12.2-.51-.07-.55-.96-.13-1.91.1-2.88.17-1.14.07-2.85-.47-4.39-1.56-.4-.05-1.12-1.25-1.68-2-.43-.96-.93-1.9-1.52-2.78,2.08.14,4.22-.03,6.21-.13,3.44-.18,6.86-.57,10.25-1.15,6.96-1.21,13.53-3.41,19.98-6.21,1.52-.66,3.02-1.33,4.53-2.01Z"/>
    <path class="cls-16" d="m139.84,76.63c.33-.52.61-.93.68-1.02-.16.47-1,2.53-1.69,4.27-.05.05-.11.1-.16.16.38-1.11.75-2.23,1.14-3.34l.02-.07Z"/>
    <path class="cls-16" d="m139.84,76.63l-.02.07c-.39,1.11-.76,2.23-1.14,3.34h0c-.23.67-.46,1.32-.7,1.97-.05.16-.1.27-.13.35-.06.16-.12.33-.19.51-.02.02-.05.05-.08.07-.96.82-2.01,1.5-3.13,2.08-1.16.61-2.36,1.14-3.58,1.62-1.33.54-2.66,1.08-4.05,1.42-.54.14-.75-.64-.23-.82,2.42-.88,4.56-2.41,6.83-3.63,1.08-.58,2.08-1.36,3.01-2.17.42-.37,1.11-1.4,1.49-1.82.16-.19,1.21-1.86,1.94-2.99Z"/>
    <path class="cls-16" d="m110.02,90.29c.27.04.26.43.07.55-.93.61-2.23.58-3.3.63-1.25.06-2.53.04-3.76-.23-.16-.03-.32-.08-.47-.13,0-.02,0-.03-.02-.05-.09-.38-.2-.75-.32-1.13-.1-.33-.21-.67-.33-1-.24-.68-.51-1.37-.82-2.04.56.75,1.28,1.94,1.68,2,1.54,1.09,3.25,1.63,4.39,1.56.96-.07,1.91-.3,2.88-.17Z"/>
    <path class="cls-16" d="m103.5,96.52c.03.31.05.62.05.93-.54-.16-1.09-.36-1.6-.61.02-.34.02-.68,0-1.03.49.28,1.01.51,1.56.7Z"/>
    <path class="cls-16" d="m103.09,93.6c.16.94.33,1.94.41,2.92-.54-.19-1.07-.42-1.56-.7v-.05c-.05-.68-.13-1.35-.24-2.03-.19-1.14-.44-2.28-.76-3.39.52.3,1.03.59,1.61.77.22.82.4,1.65.54,2.48Z"/>
    <path class="cls-16" d="m102.54,91.07s0,.03.02.05c-.58-.18-1.09-.47-1.61-.77-.08-.28-.16-.55-.26-.83-.05-.15-.1-.3-.16-.44.33.19.66.37,1,.54.18.09.35.18.52.26.24.57.44,1.03.49,1.21Z"/>
    <path class="cls-16" d="m102.22,89.94c.12.37.23.75.32,1.13-.05-.18-.25-.64-.49-1.21.05.03.12.05.17.08Z"/>
    <path class="cls-16" d="m101.89,88.94c.12.33.23.67.33,1-.05-.02-.12-.05-.17-.08-.58-1.34-1.43-3.29-1.52-3.55.13.06.33.29.54.59.31.67.58,1.35.82,2.04Z"/>
    <path class="cls-16" d="m102.05,89.87c-.17-.08-.34-.16-.52-.26-.33-.17-.67-.35-1-.54-.62-1.82-1.46-3.55-2.57-5.11.53.09,1.07.14,1.6.16.58.87,1.09,1.81,1.52,2.78-.22-.3-.41-.53-.54-.59.09.26.94,2.22,1.52,3.55Z"/>
    <path class="cls-16" d="m98.47,82.69c.39.45.75.93,1.09,1.44-.54-.02-1.07-.08-1.6-.16-.38-.54-.79-1.05-1.24-1.54.58.13,1.16.22,1.75.26Z"/>
    <path class="cls-16" d="m96.72,82.43s1.98,3.76,2.71,6.56c.73,2.79,2.52,7.87,2.52,7.87l.6-1.57-1.48-7.15s-1.87-3.26-1.94-3.65-2.42-2.06-2.42-2.06Z"/>
    <path class="cls-16" d="m103.82,91.07s-2.3-.88-2.28-.72,1.42,5.97,1.42,5.97l.86.53v-5.78Z"/>
    <path class="cls-16" d="m100.53,83.77l3.8,7.17s-1.66.14-1.9-.16-2.79-4.65-2.79-4.65l-.67-2.83.67-.34.89.81Z"/>
    <path class="cls-14" d="m32.95,218.85c.94,1.13,1.78,2.36,2.46,3.67.68,1.32,1.27,2.69,1.66,4.13l-.65.11c-.16-2.16-.37-4.32-.48-6.49l-.13-2.7.82,2.56c.31.98,1.48,1.67,2.5,1.47l-.21.47c-.61-1.14-1.07-2.36-1.38-3.61-.29-1.25-.44-2.54-.38-3.81.13,1.27.38,2.51.77,3.7.38,1.2.9,2.34,1.54,3.4l.23.38-.44.09c-1.37.27-2.81-.53-3.3-1.86l.69-.14c.19,2.16.29,4.33.43,6.5l.21,3.26-.85-3.15c-.38-1.4-.82-2.78-1.41-4.11-.59-1.33-1.27-2.62-2.07-3.86Z"/>
    <path class="cls-3" d="m30.82,181.67l-.8,4.35c-.25,1.45-.5,2.89-.72,4.35l-.61-.34c1.18-.97,2.36-1.94,3.58-2.86,1.21-.93,2.43-1.85,3.71-2.7-1.07,1.1-2.2,2.13-3.34,3.15-1.13,1.02-2.3,2.01-3.47,2.99l-.77.64.16-.98c.24-1.46.52-2.92.9-4.35.37-1.43.81-2.85,1.36-4.23Z"/>
    <path class="cls-14" d="m102.55,137.6c-.06.53-.11,1.07-.14,1.6-.03.53-.02,1.06-.01,1.59.02,1.06.14,2.11.35,3.14l-.61-.08c.81-1.87,1.64-3.74,2.52-5.58l.46-.97.23,1.04.53,2.41h-.64c.64-2.25,1.5-4.43,2.65-6.44-.81,2.17-1.51,4.36-2.01,6.6l-.3,1.35-.34-1.35-.6-2.4.69.07c-.83,1.86-1.71,3.71-2.6,5.54l-.46.96-.14-1.04c-.15-1.08-.18-2.17-.12-3.26.02-.54.1-1.08.19-1.61.09-.53.21-1.06.36-1.57Z"/>
    <path class="cls-14" d="m53.41,218.67c1.52.57,2.97,1.29,4.38,2.05l-.47.53c-1.32-1.79-2.23-3.93-2.39-6.14.82,2.04,1.75,3.96,2.98,5.71l.96,1.37-1.43-.84c-1.39-.81-2.74-1.68-4.02-2.69Z"/>
    <path class="cls-14" d="m162.28,51.18c.15,2.93.88,5.73,2.28,8.22l.69,1.21-1.18-.72c-1.72-1.05-3.12-2.63-3.87-4.46,1.16,1.59,2.6,2.9,4.24,3.83l-.5.49c-1.54-2.56-2.21-5.68-1.66-8.58Z"/>
    <path class="cls-14" d="m133.54,105.5c1.04,1.81,1.67,3.84,1.97,5.93l-.62-.03c.31-1.64.55-3.29.69-4.95l.09-1.06.58.86c.2.3.27.52.38.77l.28.72.27.7c.09.22.19.47.28.61l-.58.06c.2-.44.2-1.13.22-1.76v-1.94c.02-.65.04-1.31.16-1.96.11-.64.28-1.31.7-1.82-.32.57-.4,1.22-.43,1.85-.02.64,0,1.28.04,1.92l.13,1.94c.02.66.08,1.3-.2,2.08l-.21.58-.37-.53c-.2-.29-.28-.51-.39-.75l-.29-.71-.28-.7c-.09-.22-.21-.47-.29-.59l.67-.19c-.15,1.69-.42,3.37-.82,5.02l-.48,1.97-.14-2c-.14-2.04-.63-4.05-1.34-5.99Z"/>
    <path class="cls-3" d="m81.14,86.75c.27,2.59-.02,5.2-.62,7.72l-.64-.29c1.04-1.35,2.14-2.67,3.35-3.9-.83,1.51-1.77,2.94-2.77,4.33l-1,1.41.36-1.7c.53-2.5.9-5.01,1.33-7.57Z"/>
    <path class="cls-14" d="m212.19,205.38c-.6,1.29-1.3,2.54-2.1,3.73-.81,1.18-1.65,2.34-2.63,3.4l-.39-.51c1.68-.9,3.34-1.84,5.04-2.71l.84-.43-.33.87-1.35,3.58-.45-.4c1.17-.59,2.36-1.14,3.53-1.71.59-.29,1.19-.55,1.78-.83.57-.31,1.26-.45,1.66-.98-.33.6-1.03.83-1.56,1.18-.57.33-1.13.67-1.7.99-1.14.64-2.28,1.29-3.43,1.92l-.73.4.28-.79,1.28-3.6.51.44c-1.67.92-3.38,1.76-5.07,2.65l-1.68.88,1.28-1.39c.95-1.03,1.9-2.08,2.76-3.21.86-1.12,1.68-2.27,2.45-3.47Z"/>
    <path class="cls-14" d="m195.49,228.16c-.56,1.53-1.27,2.97-2.03,4.39l-.41-.53,3.04-.87c1.02-.29,2.04-.57,3.08-.82-.92.56-1.88,1.03-2.88,1.42-1,.38-2.01.72-3.05.97l-.84.2.43-.73c.81-1.39,1.67-2.75,2.67-4.03Z"/>
    <path class="cls-14" d="m172.01,210.01c-1.25,1.32-2.66,2.48-4.15,3.53l-.16-.54c1.59-.04,3.18-.03,4.77-.01h.94s-.69.65-.69.65c-.9.83-1.8,1.67-2.72,2.48l-.39-.55c1.06-.56,2.18-1,3.32-1.35,1.14-.36,2.32-.58,3.5-.69-1.15.3-2.26.68-3.35,1.11-1.09.43-2.13.96-3.14,1.53l-2.26,1.27,1.86-1.82c.88-.86,1.78-1.69,2.68-2.53l.25.65c-1.59-.03-3.18-.07-4.76-.14l-.97-.05.81-.49c1.53-.93,3.01-1.96,4.47-3.04Z"/>
    <path class="cls-14" d="m213.57,181.03c.39,1.65.71,3.23,1.17,4.79l.21.72-.68-.26c-1.1-.43-2.18-.91-3.21-1.55,1.19.17,2.34.49,3.46.86l-.47.45c-.53-1.61-.77-3.33-.48-5.01Z"/>
  </g>
</svg>